<?xml version="1.0" encoding="utf-8"?>
<!-- Generator: Adobe Illustrator 16.0.0, SVG Export Plug-In . SVG Version: 6.00 Build 0)  -->
<!DOCTYPE svg PUBLIC "-//W3C//DTD SVG 1.1//EN" "http://www.w3.org/Graphics/SVG/1.1/DTD/svg11.dtd">
<svg version="1.1" xmlns="http://www.w3.org/2000/svg" xmlns:xlink="http://www.w3.org/1999/xlink" x="0px" y="0px"
	 width="128.205px" height="70.276px" viewBox="0 0 128.205 70.276" enable-background="new 0 0 128.205 70.276"
	 xml:space="preserve">
<g id="圖層_3">
	<rect id="XMLID_61_" x="-2284.443" y="1284.537" fill="#F2F2F2" width="1920" height="251.963"/>
</g>
<g id="圖層_1">
	<rect id="XMLID_121_" x="-2284.443" y="-577.498" width="1920" height="1048.998"/>
	<g id="XMLID_1_" opacity="0.24">
		<defs>
			<rect id="XMLID_5_" x="-2284.443" y="-577.498" opacity="0.24" width="1920" height="1048.998"/>
		</defs>
		<clipPath id="XMLID_10_">
			<use xlink:href="#XMLID_5_"  overflow="visible"/>
		</clipPath>
		<g clip-path="url(#XMLID_10_)">
			
				<image overflow="visible" width="1706" height="960" id="XMLID_2_" xlink:href="\\Lanserver\工作專區\網站\2017-0311_伊松坊有限公司_官方網站建置專案\工作檔\link\S__31170602.jpg"  transform="matrix(1.1254 0 0 1.1254 -2284.4434 -577.4976)">
			</image>
		</g>
	</g>
	<g id="XMLID_60_" opacity="0.24">
		<defs>
			<rect id="XMLID_62_" x="-4977.905" y="-577.498" opacity="0.24" width="1920" height="1048.998"/>
		</defs>
		<clipPath id="XMLID_11_">
			<use xlink:href="#XMLID_62_"  overflow="visible"/>
		</clipPath>
		<g clip-path="url(#XMLID_11_)">
			
				<image overflow="visible" width="1706" height="960" id="XMLID_66_" xlink:href="\\Lanserver\工作專區\網站\2017-0311_伊松坊有限公司_官方網站建置專案\工作檔\link\S__31170602.jpg"  transform="matrix(1.1254 0 0 1.1254 -4977.9023 -577.4941)">
			</image>
		</g>
	</g>
	<rect id="XMLID_40_" x="-2284.443" y="-577.498" fill="#FFFFFF" width="1920" height="126.216"/>
	<g id="XMLID_119_">
		<g id="XMLID_6_">
			<path id="XMLID_1259_" fill="#52726C" d="M-1708.908-487.313c-19.165,0-34.756-15.591-34.756-34.756
				c0-19.164,15.591-34.756,34.756-34.756c19.164,0,34.755,15.592,34.755,34.756
				C-1674.152-502.904-1689.744-487.313-1708.908-487.313z M-1708.908-553.547c-17.357,0-31.479,14.122-31.479,31.479
				c0,17.357,14.122,31.479,31.479,31.479c17.357,0,31.478-14.121,31.478-31.479
				C-1677.43-539.425-1691.551-553.547-1708.908-553.547z"/>
			<path id="XMLID_1258_" fill="#52726C" d="M-1714.227-537.218h-23.231c-0.905,0-1.639-0.733-1.639-1.639s0.734-1.639,1.639-1.639
				h23.231c0.905,0,1.639,0.733,1.639,1.639S-1713.322-537.218-1714.227-537.218z"/>
			<path id="XMLID_1257_" fill="#52726C" d="M-1725.066-491.748c-0.905,0-1.639-0.733-1.639-1.639v-57.593
				c0-0.905,0.734-1.639,1.639-1.639c0.905,0,1.639,0.734,1.639,1.639v57.593C-1723.427-492.481-1724.161-491.748-1725.066-491.748z
				"/>
			<path id="XMLID_1256_" fill="#52726C" d="M-1707.391-511.493c-0.436,0-0.871-0.172-1.193-0.515l-16.357-17.37l-15.074,15.811
				c-0.625,0.654-1.662,0.679-2.317,0.055c-0.655-0.625-0.68-1.662-0.055-2.317l16.268-17.063c0.309-0.324,0.738-0.507,1.186-0.507
				c0.001,0,0.003,0,0.005,0c0.45,0.001,0.88,0.188,1.188,0.515l17.543,18.628c0.621,0.659,0.589,1.696-0.07,2.317
				C-1706.584-511.641-1706.987-511.493-1707.391-511.493z"/>
			<path id="XMLID_1255_" fill="#52726C" d="M-1675.856-518.346c-0.43,0-0.858-0.168-1.18-0.501l-19.387-20.099
				c-0.22-0.212-0.735-0.549-1.294,0.016l-17.274,17.632c-0.633,0.645-1.671,0.657-2.317,0.023
				c-0.646-0.634-0.657-1.671-0.023-2.318l17.28-17.638c1.675-1.689,4.23-1.7,5.951-0.028l19.424,20.137
				c0.628,0.651,0.61,1.688-0.042,2.317C-1675.037-518.498-1675.447-518.346-1675.856-518.346z"/>
			<path id="XMLID_1254_" fill="#52726C" d="M-1725.471-491.748c-0.395,0-0.792-0.142-1.106-0.43
				c-0.667-0.611-0.713-1.647-0.102-2.315l26.588-29.037c0.89-0.915,1.916-1.381,3-1.387c0.007,0,0.013,0,0.02,0
				c1.085,0,2.119,0.462,2.99,1.339l15.473,16.172c0.626,0.654,0.603,1.691-0.051,2.317c-0.654,0.625-1.692,0.602-2.317-0.051
				l-15.451-16.149c-0.216-0.217-0.453-0.349-0.644-0.349h-0.002c-0.247,0.001-0.503,0.226-0.634,0.36l-26.554,29
				C-1724.585-491.927-1725.027-491.748-1725.471-491.748z"/>
		</g>
		<g id="XMLID_122_">
			<path id="XMLID_218_" fill="#595757" d="M-1721.974-478.271c-1.061-0.593-2.252-0.89-3.574-0.89
				c-2.018,0-3.664,0.631-4.939,1.894c-1.276,1.262-1.914,3.009-1.914,5.24c0,1.18,0.273,2.299,0.82,3.356
				c0.546,1.058,1.351,1.892,2.412,2.503c1.061,0.611,2.265,0.917,3.612,0.917c1.243,0,2.402-0.277,3.476-0.83
				c1.074-0.553,1.904-1.367,2.489-2.443c0.586-1.076,0.879-2.295,0.879-3.659c0-1.344-0.278-2.547-0.835-3.608
				S-1720.913-477.679-1721.974-478.271z M-1722.047-468.186c-0.921,0.941-2.094,1.412-3.519,1.412c-1.4,0-2.563-0.466-3.49-1.398
				c-0.928-0.932-1.391-2.208-1.391-3.828c0-2.023,0.483-3.467,1.449-4.333c0.967-0.865,2.121-1.297,3.461-1.297
				c0.943,0,1.794,0.225,2.553,0.674c0.758,0.449,1.334,1.082,1.729,1.897c0.393,0.816,0.59,1.771,0.59,2.866
				C-1720.666-470.463-1721.126-469.127-1722.047-468.186z"/>
			<polygon id="XMLID_130_" fill="#595757" points="-1706.032,-468.423 -1713.549,-479.172 -1715.492,-479.172 -1715.492,-465.481 
				-1713.676,-465.481 -1713.676,-476.24 -1706.159,-465.481 -1704.216,-465.481 -1704.216,-479.172 -1706.032,-479.172 			"/>
			<path id="XMLID_129_" fill="#595757" d="M-1672.26-466.899h-6.929c-0.801,0-1.542-0.194-1.542-1.599v-2.872h7.243
				c0.471,0,0.853-0.359,0.853-0.801s-0.382-0.801-0.853-0.801h-7.243v-2.872c0-1.405,0.741-1.599,1.542-1.599h6.284
				c0.471,0,0.853-0.359,0.853-0.801s-0.382-0.801-0.853-0.801h-6.284c-2.034,0-3.249,1.196-3.249,3.201v7.346
				c0,2.005,1.214,3.201,3.249,3.201h6.929c0.471,0,0.853-0.359,0.853-0.801S-1671.789-466.899-1672.26-466.899z"/>
			<path id="XMLID_128_" fill="#595757" d="M-1759.686-468.479v-2.863h8.342v-1.656h-8.342v-2.863c0-1.382,0.727-1.572,1.514-1.572
				h7.09v-1.657h-7.09c-2.052,0-3.276,1.207-3.276,3.229v7.383c0,2.021,1.225,3.229,3.276,3.229h7.412v-1.657h-7.412
				C-1758.959-466.908-1759.686-467.097-1759.686-468.479z"/>
			<path id="XMLID_127_" fill="#595757" d="M-1685.733-479.045h-10.246c-0.471,0-0.853,0.361-0.853,0.805
				c0,0.444,0.382,0.805,0.853,0.805h4.156v11.333c0,0.504,0.433,0.911,0.967,0.911s0.967-0.407,0.967-0.911v-11.333h4.156
				c0.471,0,0.853-0.36,0.853-0.805C-1684.88-478.684-1685.262-479.045-1685.733-479.045z"/>
			<path id="XMLID_126_" fill="#595757" d="M-1736.353-471.948c-0.361-0.344-0.791-0.621-1.278-0.823
				c-0.484-0.201-1.01-0.303-1.563-0.303h-4.757c-0.313,0-0.613-0.058-0.893-0.171c-0.279-0.114-0.526-0.271-0.734-0.47
				s-0.374-0.433-0.493-0.698c-0.119-0.266-0.18-0.552-0.18-0.85c0-0.297,0.061-0.583,0.18-0.85c0.119-0.265,0.285-0.5,0.493-0.698
				c0.208-0.198,0.455-0.356,0.734-0.469c0.28-0.114,0.581-0.171,0.893-0.171h7.721v-1.641h-7.721c-0.546,0-1.07,0.102-1.559,0.303
				c-0.489,0.202-0.92,0.478-1.282,0.823c-0.362,0.344-0.653,0.754-0.864,1.22c-0.211,0.463-0.318,0.962-0.318,1.483
				c0,0.527,0.107,1.029,0.318,1.493c0.212,0.466,0.503,0.876,0.865,1.221c0.361,0.344,0.792,0.619,1.281,0.817
				c0.488,0.198,1.012,0.298,1.559,0.298h4.757c0.319,0,0.622,0.058,0.899,0.171c0.275,0.114,0.519,0.272,0.724,0.47
				c0.204,0.198,0.368,0.431,0.486,0.691c0.12,0.264,0.18,0.548,0.18,0.846c0,0.297-0.061,0.583-0.18,0.85
				c-0.119,0.265-0.283,0.5-0.487,0.697c-0.205,0.198-0.448,0.356-0.724,0.47c-0.277,0.114-0.579,0.172-0.899,0.172h-8.78v1.641
				h8.78c0.554,0,1.08-0.101,1.564-0.298c0.485-0.199,0.915-0.474,1.276-0.818s0.65-0.752,0.859-1.215
				c0.208-0.46,0.313-0.965,0.313-1.498c0-0.521-0.105-1.018-0.313-1.479C-1735.703-471.195-1735.992-471.604-1736.353-471.948z"/>
			<path id="XMLID_123_" fill="#595757" d="M-1656.446-466.533l-5.354-12.016c-0.145-0.325-0.467-0.534-0.823-0.534
				s-0.678,0.209-0.823,0.534l-5.354,12.016c-0.202,0.455,0.002,0.988,0.457,1.19c0.455,0.203,0.987-0.002,1.19-0.456l0.902-2.024
				h7.259l0.902,2.024c0.15,0.335,0.479,0.535,0.824,0.535c0.123,0,0.247-0.025,0.366-0.079
				C-1656.447-465.545-1656.243-466.078-1656.446-466.533z M-1665.502-469.508l2.878-6.459l2.878,6.459H-1665.502z"/>
		</g>
	</g>
	<g id="XMLID_56_">
		<g id="XMLID_76_">
			<path id="XMLID_91_" fill="#52726C" d="M60.714-187.447c-19.164,0-34.756-15.591-34.756-34.756
				c0-19.164,15.592-34.756,34.756-34.756c19.165,0,34.756,15.592,34.756,34.756C95.47-203.038,79.879-187.447,60.714-187.447z
				 M60.714-253.681c-17.356,0-31.479,14.122-31.479,31.479c0,17.357,14.122,31.479,31.479,31.479
				c17.357,0,31.479-14.121,31.479-31.479C92.192-239.56,78.071-253.681,60.714-253.681z"/>
			<path id="XMLID_81_" fill="#52726C" d="M55.396-237.352h-23.23c-0.905,0-1.639-0.734-1.639-1.639s0.733-1.639,1.639-1.639h23.23
				c0.905,0,1.639,0.733,1.639,1.639S56.301-237.352,55.396-237.352z"/>
			<path id="XMLID_80_" fill="#52726C" d="M44.556-191.882c-0.905,0-1.639-0.733-1.639-1.639v-57.593
				c0-0.905,0.733-1.639,1.639-1.639s1.639,0.734,1.639,1.639v57.593C46.194-192.615,45.461-191.882,44.556-191.882z"/>
			<path id="XMLID_79_" fill="#52726C" d="M62.231-211.626c-0.436,0-0.87-0.173-1.192-0.516l-16.358-17.37l-15.074,15.811
				c-0.624,0.654-1.661,0.679-2.316,0.055c-0.655-0.625-0.68-1.662-0.056-2.317l16.268-17.063c0.31-0.324,0.738-0.507,1.187-0.507
				c0.001,0,0.003,0,0.005,0c0.45,0.001,0.88,0.188,1.188,0.515l17.543,18.629c0.621,0.659,0.59,1.696-0.069,2.316
				C63.038-211.774,62.635-211.626,62.231-211.626z"/>
			<path id="XMLID_78_" fill="#52726C" d="M93.766-218.48c-0.43,0-0.858-0.167-1.18-0.501L73.198-239.08
				c-0.22-0.212-0.735-0.549-1.294,0.016L54.63-221.432c-0.633,0.645-1.671,0.657-2.317,0.023c-0.646-0.634-0.656-1.671-0.023-2.318
				l17.28-17.638c1.675-1.689,4.23-1.7,5.95-0.028l19.426,20.137c0.628,0.651,0.609,1.689-0.042,2.317
				C94.585-218.632,94.175-218.48,93.766-218.48z"/>
			<path id="XMLID_77_" fill="#52726C" d="M44.151-191.882c-0.396,0-0.792-0.142-1.106-0.43c-0.668-0.611-0.714-1.647-0.103-2.315
				l26.589-29.036c0.891-0.915,1.916-1.382,3-1.387c0.007,0,0.013,0,0.02,0c1.085,0,2.118,0.462,2.989,1.338l15.473,16.172
				c0.626,0.654,0.603,1.691-0.051,2.317c-0.654,0.625-1.691,0.602-2.317-0.051l-15.451-16.149c-0.216-0.218-0.452-0.35-0.644-0.35
				h-0.003c-0.246,0.001-0.502,0.226-0.633,0.36l-26.554,29C45.037-192.061,44.595-191.882,44.151-191.882z"/>
		</g>
		<g id="XMLID_57_">
			<path id="XMLID_73_" fill="#595757" d="M47.648-178.406c-1.061-0.593-2.252-0.89-3.573-0.89c-2.018,0-3.664,0.631-4.939,1.894
				c-1.276,1.262-1.914,3.009-1.914,5.24c0,1.18,0.273,2.298,0.82,3.356c0.546,1.058,1.35,1.892,2.411,2.503
				c1.061,0.611,2.265,0.917,3.612,0.917c1.243,0,2.401-0.277,3.476-0.83c1.074-0.553,1.904-1.367,2.49-2.443
				c0.585-1.076,0.878-2.295,0.878-3.658c0-1.345-0.278-2.548-0.835-3.608S48.709-177.813,47.648-178.406z M47.575-168.32
				c-0.921,0.941-2.095,1.412-3.52,1.412c-1.399,0-2.563-0.466-3.49-1.398s-1.392-2.208-1.392-3.828c0-2.023,0.483-3.467,1.45-4.333
				c0.967-0.865,2.12-1.297,3.461-1.297c0.943,0,1.795,0.225,2.553,0.674c0.758,0.449,1.335,1.082,1.729,1.897
				c0.394,0.816,0.591,1.771,0.591,2.866C48.957-170.597,48.496-169.261,47.575-168.32z"/>
			<polygon id="XMLID_72_" fill="#595757" points="63.591,-168.557 56.072,-179.307 54.13,-179.307 54.13,-165.615 55.945,-165.615 
				55.945,-176.374 63.463,-165.615 65.406,-165.615 65.406,-179.307 63.591,-179.307 			"/>
			<path id="XMLID_71_" fill="#595757" d="M97.362-167.033h-6.929c-0.801,0-1.543-0.194-1.543-1.599v-2.872h7.244
				c0.471,0,0.853-0.359,0.853-0.801s-0.382-0.801-0.853-0.801h-7.244v-2.872c0-1.405,0.742-1.599,1.543-1.599h6.284
				c0.471,0,0.853-0.359,0.853-0.801s-0.382-0.801-0.853-0.801h-6.284c-2.033,0-3.248,1.197-3.248,3.201v7.346
				c0,2.005,1.215,3.201,3.248,3.201h6.929c0.472,0,0.853-0.359,0.853-0.801S97.834-167.033,97.362-167.033z"/>
			<path id="XMLID_70_" fill="#595757" d="M9.936-168.614v-2.863h8.343v-1.656H9.936v-2.863c0-1.382,0.728-1.572,1.515-1.572h7.09
				v-1.657h-7.09c-2.053,0-3.276,1.207-3.276,3.229v7.383c0,2.021,1.224,3.229,3.276,3.229h7.412v-1.656H11.45
				C10.663-167.042,9.936-167.231,9.936-168.614z"/>
			<path id="XMLID_69_" fill="#595757" d="M83.89-179.179H73.644c-0.471,0-0.853,0.361-0.853,0.805c0,0.444,0.382,0.805,0.853,0.805
				H77.8v11.333c0,0.504,0.434,0.912,0.967,0.912s0.967-0.408,0.967-0.912v-11.333h4.156c0.471,0,0.853-0.361,0.853-0.805
				C84.742-178.818,84.36-179.179,83.89-179.179z"/>
			<path id="XMLID_65_" fill="#595757" d="M33.27-172.082c-0.361-0.344-0.791-0.621-1.278-0.823
				c-0.484-0.201-1.011-0.303-1.563-0.303h-4.757c-0.313,0-0.613-0.058-0.893-0.171c-0.279-0.114-0.526-0.271-0.734-0.469
				c-0.208-0.198-0.374-0.433-0.493-0.699s-0.18-0.552-0.18-0.849c0-0.298,0.061-0.584,0.18-0.85c0.119-0.265,0.285-0.5,0.493-0.698
				s0.455-0.356,0.734-0.47c0.28-0.113,0.58-0.171,0.893-0.171h7.721v-1.641h-7.721c-0.547,0-1.071,0.102-1.559,0.303
				c-0.489,0.202-0.921,0.479-1.282,0.823c-0.362,0.344-0.652,0.754-0.864,1.22c-0.211,0.463-0.318,0.962-0.318,1.483
				c0,0.527,0.107,1.029,0.318,1.492c0.212,0.466,0.502,0.876,0.864,1.221c0.361,0.344,0.792,0.619,1.281,0.817
				c0.487,0.198,1.013,0.298,1.56,0.298h4.757c0.319,0,0.621,0.058,0.898,0.171c0.275,0.114,0.519,0.272,0.724,0.47
				c0.204,0.198,0.367,0.431,0.486,0.691c0.12,0.264,0.181,0.548,0.181,0.846s-0.061,0.583-0.18,0.85
				c-0.119,0.265-0.283,0.5-0.487,0.697c-0.205,0.198-0.448,0.356-0.724,0.47c-0.277,0.114-0.579,0.171-0.898,0.171h-8.78v1.641
				h8.78c0.553,0,1.079-0.1,1.563-0.298c0.486-0.199,0.916-0.474,1.277-0.817c0.36-0.344,0.65-0.753,0.858-1.215
				c0.208-0.46,0.313-0.964,0.313-1.498c0-0.521-0.105-1.018-0.313-1.479C33.919-171.33,33.63-171.738,33.27-172.082z"/>
			<path id="XMLID_58_" fill="#595757" d="M113.176-166.667l-5.354-12.016c-0.146-0.325-0.468-0.534-0.824-0.534
				c-0.355,0-0.678,0.209-0.822,0.534l-5.354,12.016c-0.202,0.454,0.001,0.987,0.456,1.19c0.455,0.202,0.987-0.002,1.189-0.457
				l0.902-2.024h7.259l0.902,2.024c0.149,0.335,0.479,0.535,0.823,0.535c0.123,0,0.247-0.025,0.366-0.078
				C113.175-165.679,113.379-166.212,113.176-166.667z M104.12-169.642l2.878-6.459l2.879,6.459H104.12z"/>
		</g>
	</g>
	<g id="XMLID_63_">
		<path id="XMLID_87_" fill="#808080" d="M-1324.443,1371.369c-14.336,0-26-11.663-26-25.999c0-14.337,11.664-26.001,26-26.001
			c14.337,0,26,11.664,26,26.001C-1298.443,1359.706-1310.106,1371.369-1324.443,1371.369z M-1324.443,1321.821
			c-12.984,0-23.548,10.563-23.548,23.549c0,12.984,10.564,23.548,23.548,23.548s23.548-10.563,23.548-23.548
			C-1300.896,1332.385-1311.459,1321.821-1324.443,1321.821z"/>
		<path id="XMLID_86_" fill="#808080" d="M-1328.422,1334.037h-17.378c-0.677,0-1.226-0.549-1.226-1.227
			c0-0.677,0.549-1.226,1.226-1.226h17.378c0.677,0,1.226,0.549,1.226,1.226
			C-1327.196,1333.488-1327.745,1334.037-1328.422,1334.037z"/>
		<path id="XMLID_85_" fill="#808080" d="M-1336.531,1368.052c-0.677,0-1.226-0.549-1.226-1.226v-43.084
			c0-0.678,0.549-1.227,1.226-1.227s1.226,0.549,1.226,1.227v43.084C-1335.305,1367.503-1335.854,1368.052-1336.531,1368.052z"/>
		<path id="XMLID_84_" fill="#808080" d="M-1323.308,1353.281c-0.327,0-0.652-0.129-0.893-0.386l-12.236-12.993l-11.277,11.827
			c-0.467,0.489-1.243,0.508-1.733,0.041c-0.49-0.467-0.508-1.243-0.041-1.733l12.169-12.764c0.231-0.242,0.552-0.38,0.887-0.38
			c0.001,0,0.002,0,0.004,0c0.336,0.001,0.658,0.141,0.889,0.386l13.123,13.936c0.465,0.492,0.441,1.269-0.052,1.732
			C-1322.705,1353.171-1323.007,1353.281-1323.308,1353.281z"/>
		<path id="XMLID_83_" fill="#808080" d="M-1299.719,1348.154c-0.321,0-0.642-0.125-0.882-0.375l-14.503-15.035
			c-0.165-0.159-0.551-0.411-0.969,0.012l-12.922,13.189c-0.474,0.483-1.25,0.492-1.733,0.019c-0.484-0.475-0.492-1.251-0.018-1.734
			l12.927-13.194c1.252-1.264,3.164-1.271,4.451-0.021l14.531,15.063c0.47,0.487,0.456,1.264-0.031,1.733
			C-1299.105,1348.04-1299.412,1348.154-1299.719,1348.154z"/>
		<path id="XMLID_82_" fill="#808080" d="M-1336.833,1368.052c-0.296,0-0.592-0.106-0.828-0.321c-0.5-0.458-0.534-1.233-0.076-1.732
			l19.89-21.722c0.666-0.685,1.434-1.033,2.244-1.038c0.005,0,0.01,0,0.015,0c0.812,0,1.585,0.346,2.236,1.002l11.575,12.098
			c0.468,0.489,0.451,1.265-0.038,1.733c-0.489,0.468-1.266,0.45-1.733-0.038l-11.559-12.081c-0.162-0.163-0.339-0.262-0.481-0.262
			h-0.002c-0.185,0.001-0.377,0.169-0.475,0.27l-19.864,21.694C-1336.171,1367.918-1336.502,1368.052-1336.833,1368.052z"/>
	</g>
	
		<text id="XMLID_120_" transform="matrix(1 0 0 1 -1338.2559 -465.3125)" fill="#919191" font-family="'MicrosoftJhengHeiRegular'" font-size="14">關於伊松</text>
	
		<text id="XMLID_221_" transform="matrix(1 0 0 1 -1240.5059 -465.3125)" fill="#919191" font-family="'MicrosoftJhengHeiRegular'" font-size="14">最新消息</text>
	
		<text id="XMLID_222_" transform="matrix(1 0 0 1 -1142.7559 -465.3125)" fill="#919191" font-family="'MicrosoftJhengHeiRegular'" font-size="14">伊松好茶</text>
	
		<text id="XMLID_223_" transform="matrix(1 0 0 1 -1045.0059 -465.3125)" fill="#919191" font-family="'MicrosoftJhengHeiRegular'" font-size="14">品茶知識</text>
	
		<text id="XMLID_224_" transform="matrix(1 0 0 1 -947.2559 -465.3125)" fill="#919191" font-family="'MicrosoftJhengHeiRegular'" font-size="14">聯絡我們</text>
	<g id="XMLID_18_">
		
			<text id="XMLID_43_" transform="matrix(1 0 0 1 -1565.1182 1340.6113)" fill="#919191" font-family="'MicrosoftJhengHeiRegular'" font-size="20">關於伊松</text>
		
			<text id="XMLID_42_" transform="matrix(1 0 0 1 -1464.7808 1340.6113)" fill="#919191" font-family="'MicrosoftJhengHeiRegular'" font-size="20">最新消息</text>
		
			<text id="XMLID_41_" transform="matrix(1 0 0 1 -1364.4429 1340.6113)" fill="#919191" font-family="'MicrosoftJhengHeiRegular'" font-size="20">伊松好茶</text>
		
			<text id="XMLID_39_" transform="matrix(1 0 0 1 -1264.1055 1340.6113)" fill="#919191" font-family="'MicrosoftJhengHeiRegular'" font-size="20">品茶知識</text>
		
			<text id="XMLID_38_" transform="matrix(1 0 0 1 -1163.7686 1340.6113)" fill="#919191" font-family="'MicrosoftJhengHeiRegular'" font-size="20">聯絡我們</text>
	</g>
	<text id="XMLID_1336_" transform="matrix(1 0 0 1 -1513.3818 1510.8779)" fill="#999999" font-family="'ArialMT'" font-size="14">© 2017 Eson Tea. All Rights Reserved | Design by IDEAMAX</text>
	<g id="XMLID_1339_">
		<g id="XMLID_1302_">
			<g id="XMLID_104_">
				<path id="XMLID_136_" fill="#717071" stroke="#808080" stroke-width="0.25" stroke-miterlimit="10" d="M-613.471,1183.317
					c-0.043-0.032-0.462-0.34-0.496-0.365c-2.532,0.815-5.138,1.933-7.803,3.423c-0.372,0.208-0.727,0.394-1.093,0.594l-2.787,2.049
					c1.338-0.688,2.703-1.411,4.124-2.206C-618.771,1185.271-616.08,1184.13-613.471,1183.317z"/>
				<path id="XMLID_138_" fill="#717071" stroke="#808080" stroke-width="0.25" stroke-miterlimit="10" d="M-602.786,1191.172
					c-0.263-0.193-0.418-0.307-0.671-0.494c-5.567,0.133-11.711,1.58-18.204,5.211c-11.825,6.613-20.747,9.387-27.294,10.262
					l-0.957,0.704c6.676-0.748,15.949-3.513,28.495-10.529C-614.749,1192.597-608.455,1191.2-602.786,1191.172z"/>
				<path id="XMLID_139_" fill="#717071" stroke="#808080" stroke-width="0.25" stroke-miterlimit="10" d="M-608.576,1186.915
					c-0.142-0.104-0.43-0.315-0.562-0.413c-3.988,0.731-8.203,2.184-12.578,4.63c-6.821,3.815-12.673,6.348-17.664,7.98
					l-1.362,1.001c5.334-1.631,11.708-4.315,19.271-8.545C-616.978,1189.055-612.654,1187.605-608.576,1186.915z"/>
				<path id="XMLID_140_" fill="#717071" stroke="#808080" stroke-width="0.25" stroke-miterlimit="10" d="M-605.245,1189.363
					c-0.104-0.076-0.206-0.151-0.309-0.227c-4.921,0.387-10.255,1.829-15.867,4.885c-9.953,5.42-17.78,8.131-23.786,9.374
					l-0.48,0.354c6.097-1.197,14.122-3.918,24.386-9.508C-615.615,1191.145-610.214,1189.713-605.245,1189.363z"/>
				<path id="XMLID_141_" fill="#717071" stroke="#808080" stroke-width="0.25" stroke-miterlimit="10" d="M-610.634,1185.402
					c-0.05-0.036-0.218-0.16-0.265-0.194c-3.367,0.778-6.886,2.076-10.522,4.057c-4.704,2.562-8.92,4.503-12.71,5.988l-0.779,0.573
					c4.019-1.525,8.537-3.58,13.608-6.342C-617.611,1187.475-614.043,1186.17-610.634,1185.402z"/>
				<path id="XMLID_142_" fill="#717071" stroke="#808080" stroke-width="0.25" stroke-miterlimit="10" d="M-615.504,1181.822
					c-0.001-0.001-0.179-0.131-0.179-0.131l-0.558,0.409l-0.794,0.584c0.596-0.246,1.187-0.471,1.774-0.683
					C-615.264,1181.999-615.502,1181.824-615.504,1181.822z"/>
				<path id="XMLID_143_" fill="#717071" stroke="#808080" stroke-width="0.25" stroke-miterlimit="10" d="M-625.702,1217.189h1.1
					c1.11-0.58,2.237-1.184,3.403-1.836c4.783-2.675,9.374-4.147,13.681-4.778c0.409-0.301,0.435-0.32,0.849-0.624
					c-4.625,0.558-9.588,2.066-14.773,4.966C-622.912,1215.739-624.322,1216.482-625.702,1217.189z"/>
				<path id="XMLID_144_" fill="#717071" stroke="#808080" stroke-width="0.25" stroke-miterlimit="10" d="M-620.236,1217.189h0.558
					c2.31-1.143,4.567-2.008,6.766-2.649c0.242-0.178,0.337-0.247,0.584-0.429C-614.887,1214.809-617.527,1215.813-620.236,1217.189
					z"/>
				<path id="XMLID_145_" fill="#717071" stroke="#808080" stroke-width="0.25" stroke-miterlimit="10" d="M-595.112,1201.454
					c0.24-0.176,0.3-0.22,0.536-0.394c-7.564-1.679-16.846-1.322-26.976,4.343c-22.119,12.37-34.079,11.31-39.323,9.511
					l-0.555,0.407c1.743,0.672,4.273,1.277,7.771,1.277c6.789,0,17.184-2.277,32.351-10.759
					C-611.501,1200.354-602.499,1199.907-595.112,1201.454z"/>
				<path id="XMLID_146_" fill="#717071" stroke="#808080" stroke-width="0.25" stroke-miterlimit="10" d="M-600.598,1205.487
					c0.311-0.229,0.318-0.234,0.627-0.462c-6.405-0.443-13.713,0.765-21.527,5.135c-5.627,3.146-10.585,5.411-14.954,7.029h1.472
					c4.068-1.599,8.621-3.737,13.727-6.593C-613.781,1206.418-606.776,1205.163-600.598,1205.487z"/>
				<path id="XMLID_147_" fill="#717071" stroke="#808080" stroke-width="0.25" stroke-miterlimit="10" d="M-598.547,1194.288
					c-0.186-0.136-0.222-0.163-0.404-0.298c-6.603-0.708-14.238,0.307-22.47,4.789c-14.965,8.149-25.146,10.195-31.501,10.287
					l-0.344,0.254c6.355-0.021,16.685-2,31.964-10.321C-612.944,1194.447-605.204,1193.493-598.547,1194.288z"/>
				<path id="XMLID_148_" fill="#717071" stroke="#808080" stroke-width="0.25" stroke-miterlimit="10" d="M-604.494,1208.352
					c0.184-0.136,0.186-0.137,0.37-0.271c-5.31,0.202-11.138,1.617-17.297,4.971c-2.957,1.611-5.718,2.973-8.311,4.139h0.596
					c2.457-1.12,5.057-2.406,7.834-3.919C-615.326,1210.017-609.668,1208.604-604.494,1208.352z"/>
				<path id="XMLID_149_" fill="#717071" stroke="#808080" stroke-width="0.25" stroke-miterlimit="10" d="M-598.338,1203.826
					c0.14-0.104,0.151-0.111,0.291-0.214c-6.805-0.904-14.765-0.007-23.374,4.682c-8.827,4.808-15.981,7.481-21.681,8.896h1.029
					c5.555-1.478,12.425-4.131,20.771-8.676C-612.857,1203.915-605.041,1202.986-598.338,1203.826z"/>
				<path id="XMLID_150_" fill="#717071" stroke="#808080" stroke-width="0.25" stroke-miterlimit="10" d="M-621.362,1201.082
					c9.746-5.449,18.696-5.924,26.055-4.412c-0.458-0.337-0.487-0.358-0.938-0.69c-7.254-1.28-15.941-0.602-25.36,4.666
					c-16.687,9.333-27.579,11.028-34.179,10.526l-0.718,0.528c0.854,0.088,1.779,0.141,2.79,0.141
					C-646.924,1211.841-636.529,1209.564-621.362,1201.082z"/>
				<path id="XMLID_152_" fill="#717071" stroke="#808080" stroke-width="0.25" stroke-miterlimit="10" d="M-621.302,1203.756
					c10.689-5.821,20.366-5.76,28.058-3.675c0.105-0.078,0.147-0.108,0.252-0.186c-7.773-2.149-17.582-2.266-28.429,3.642
					c-16.721,9.105-27.494,10.602-33.584,10.252c-1.398-0.08-2.61-0.262-3.669-0.493l-0.273,0.201
					c1.108,0.253,2.395,0.452,3.894,0.54C-648.928,1214.399-638.098,1212.903-621.302,1203.756z"/>
				<path id="XMLID_153_" fill="#717071" stroke="#808080" stroke-width="0.25" stroke-miterlimit="10" d="M-663.233,1216.647
					c0.293,0.171,0.642,0.355,1.05,0.542h0.662c-0.596-0.243-1.084-0.488-1.48-0.712L-663.233,1216.647z"/>
			</g>
			<g id="XMLID_90_">
				<path id="XMLID_151_" fill="#595757" stroke="#808080" stroke-width="0.25" stroke-miterlimit="10" d="M-581.724,1191.57
					c0,0-0.178,0.131-0.179,0.132c0.245,0.09,0.49,0.183,0.736,0.278L-581.724,1191.57z"/>
				<path id="XMLID_162_" fill="#595757" stroke="#808080" stroke-width="0.25" stroke-miterlimit="10" d="M-581.166,1191.98
					c-0.246-0.096-0.491-0.188-0.736-0.278c-0.002,0.001-0.24,0.177-0.244,0.18c0.588,0.212,1.179,0.436,1.774,0.683
					L-581.166,1191.98z"/>
				<path id="XMLID_163_" fill="#595757" stroke="#808080" stroke-width="0.25" stroke-miterlimit="10" d="M-562.496,1205.705
					l-0.779-0.572c-3.79-1.485-8.006-3.427-12.71-5.988c-3.637-1.98-7.155-3.279-10.522-4.057c-0.047,0.035-0.215,0.158-0.265,0.194
					c3.409,0.767,6.979,2.072,10.668,4.082C-571.033,1202.126-566.515,1204.18-562.496,1205.705z"/>
				<path id="XMLID_164_" fill="#595757" stroke="#808080" stroke-width="0.25" stroke-miterlimit="10" d="M-551.719,1213.629
					l-0.48-0.354c-6.006-1.243-13.833-3.954-23.786-9.374c-5.611-3.056-10.946-4.498-15.866-4.885
					c-0.103,0.075-0.205,0.15-0.309,0.228c4.968,0.349,10.369,1.78,16.056,4.877
					C-565.841,1209.711-557.814,1212.432-551.719,1213.629z"/>
				<path id="XMLID_165_" fill="#595757" stroke="#808080" stroke-width="0.25" stroke-miterlimit="10" d="M-576.104,1208.879
					c15.279,8.321,25.609,10.3,31.964,10.32l-0.344-0.253c-6.354-0.092-16.536-2.138-31.501-10.287
					c-8.231-4.482-15.867-5.497-22.469-4.789c-0.184,0.135-0.22,0.161-0.405,0.298
					C-592.202,1203.373-584.462,1204.327-576.104,1208.879z"/>
				<path id="XMLID_166_" fill="#595757" stroke="#808080" stroke-width="0.25" stroke-miterlimit="10" d="M-576.104,1213.636
					c16.796,9.147,27.626,10.644,33.752,10.28c1.499-0.088,2.785-0.287,3.895-0.539l-0.274-0.201
					c-1.058,0.231-2.271,0.413-3.669,0.493c-6.09,0.35-16.863-1.146-33.584-10.253c-12.669-6.898-23.932-5.591-32.176-2.41
					c-0.396,0.292-0.407,0.3-0.801,0.589C-600.703,1208.186-589.155,1206.528-576.104,1213.636z"/>
				<path id="XMLID_167_" fill="#595757" stroke="#808080" stroke-width="0.25" stroke-miterlimit="10" d="M-612.692,1217.822
					c-5.711,3.005-10.021,6.818-12.444,9.247h0.355c2.439-2.421,6.659-6.108,12.213-9.029c8.311-4.372,21.386-7.858,36.464,0.354
					c8.346,4.545,15.216,7.198,20.771,8.676h1.029c-5.698-1.414-12.854-4.088-21.681-8.896
					C-591.163,1209.908-604.325,1213.42-612.692,1217.822z"/>
				<path id="XMLID_168_" fill="#595757" stroke="#808080" stroke-width="0.25" stroke-miterlimit="10" d="M-535.223,1227.069
					c0.408-0.187,0.757-0.371,1.05-0.542l-0.231-0.17c-0.396,0.224-0.885,0.469-1.48,0.712H-535.223z"/>
				<path id="XMLID_169_" fill="#595757" stroke="#808080" stroke-width="0.25" stroke-miterlimit="10" d="M-612.692,1222.58
					c-2.651,1.396-4.991,2.964-6.991,4.489h0.414c1.932-1.454,4.17-2.94,6.693-4.268c8.313-4.375,21.388-7.865,36.472,0.349
					c2.777,1.513,5.377,2.799,7.834,3.919h0.596c-2.592-1.167-5.354-2.528-8.311-4.139
					C-591.163,1214.665-604.325,1218.177-612.692,1222.58z"/>
				<path id="XMLID_170_" fill="#595757" stroke="#808080" stroke-width="0.25" stroke-miterlimit="10" d="M-612.169,1227.069h0.556
					c8.029-3.977,20.053-6.84,33.887,0h0.557C-591.538,1219.769-604.006,1222.91-612.169,1227.069z"/>
				<path id="XMLID_1231_" fill="#595757" stroke="#808080" stroke-width="0.25" stroke-miterlimit="10" d="M-571.757,1198.897
					l-2.787-2.049c-0.366-0.2-0.721-0.386-1.093-0.594c-2.665-1.491-5.271-2.607-7.803-3.423c-0.033,0.025-0.453,0.333-0.496,0.365
					c2.609,0.813,5.301,1.953,8.055,3.494C-574.46,1197.486-573.095,1198.209-571.757,1198.897z"/>
				<path id="XMLID_1232_" fill="#595757" stroke="#808080" stroke-width="0.25" stroke-miterlimit="10" d="M-556.663,1209.993
					l-1.363-1.001c-4.991-1.633-10.842-4.165-17.664-7.98c-4.374-2.446-8.59-3.898-12.578-4.63c-0.131,0.097-0.42,0.31-0.561,0.413
					c4.077,0.69,8.4,2.14,12.895,4.653C-568.372,1205.678-561.997,1208.362-556.663,1209.993z"/>
				<path id="XMLID_1234_" fill="#595757" stroke="#808080" stroke-width="0.25" stroke-miterlimit="10" d="M-575.989,1206.205
					c12.547,7.017,21.819,9.781,28.495,10.528l-0.957-0.703c-6.547-0.875-15.469-3.648-27.294-10.262
					c-6.493-3.631-12.636-5.078-18.203-5.211c-0.254,0.187-0.409,0.301-0.672,0.493
					C-588.951,1201.08-582.657,1202.477-575.989,1206.205z"/>
				<path id="XMLID_1235_" fill="#595757" stroke="#808080" stroke-width="0.25" stroke-miterlimit="10" d="M-576.044,1210.962
					c15.167,8.482,25.562,10.759,32.351,10.759c1.011,0,1.936-0.053,2.79-0.141l-0.718-0.528c-6.6,0.501-17.492-1.194-34.179-10.526
					c-9.419-5.268-18.105-5.946-25.36-4.666c-0.451,0.332-0.48,0.354-0.938,0.689
					C-594.74,1205.037-585.79,1205.512-576.044,1210.962z"/>
				<path id="XMLID_1237_" fill="#595757" stroke="#808080" stroke-width="0.25" stroke-miterlimit="10" d="M-627.506,1226.033
					l0.387,0.318c0.055-0.067,5.629-6.756,14.674-11.387c8.337-4.267,21.408-7.601,36.347,0.755
					c15.167,8.481,25.562,10.759,32.351,10.759c3.498,0,6.028-0.605,7.771-1.277l-0.555-0.407
					c-5.244,1.799-17.204,2.859-39.323-9.511c-15.131-8.462-28.373-5.086-36.819-0.764c-0.34,0.174-0.665,0.356-0.995,0.536
					c-5.032,3.699-9.114,6.699-11.238,8.262C-626.564,1224.91-627.483,1226.006-627.506,1226.033z"/>
				<path id="XMLID_1238_" fill="#595757" stroke="#808080" stroke-width="0.25" stroke-miterlimit="10" d="M-612.728,1219.277
					c-4.78,2.447-8.591,5.459-11.157,7.792h0.743c2.532-2.253,6.167-5.059,10.657-7.354c8.333-4.263,21.399-7.589,36.332,0.762
					c5.105,2.855,9.658,4.994,13.727,6.593h1.472c-4.369-1.618-9.327-3.883-14.954-7.029
					C-591.041,1211.576-604.284,1214.955-612.728,1219.277z"/>
				<path id="XMLID_1239_" fill="#595757" stroke="#808080" stroke-width="0.25" stroke-miterlimit="10" d="M-612.782,1224.034
					c-1.855,0.949-3.558,1.986-5.107,3.035h0.899c1.366-0.896,2.844-1.775,4.436-2.59c8.337-4.268,21.408-7.601,36.348,0.754
					c1.166,0.652,2.293,1.255,3.403,1.836h1.1c-1.38-0.707-2.79-1.45-4.259-2.272
					C-591.096,1216.334-604.34,1219.711-612.782,1224.034z"/>
				<path id="XMLID_1240_" fill="#595757" stroke="#808080" stroke-width="0.25" stroke-miterlimit="10" d="M-609.028,1227.069
					h1.417c6.707-2.405,15.326-3.498,24.983,0h1.409C-592.122,1222.714-601.791,1224.207-609.028,1227.069z"/>
			</g>
		</g>
		<text id="XMLID_1369_" transform="matrix(1 0 0 1 -611.541 1244.0605)" fill="#717071" font-family="'ArialMT'" font-size="12">TOP</text>
	</g>
	<g id="XMLID_303_">
		<g id="XMLID_305_">
			<g id="XMLID_325_">
				<path id="XMLID_341_" fill="#717071" stroke="#808080" stroke-width="0.25" stroke-miterlimit="10" d="M48.906,3.768
					c-0.043-0.032-0.462-0.34-0.495-0.365c-2.532,0.815-5.138,1.932-7.803,3.423c-0.372,0.208-0.728,0.394-1.093,0.594l-2.788,2.049
					c1.339-0.689,2.704-1.412,4.125-2.207C43.606,5.722,46.297,4.582,48.906,3.768z"/>
				<path id="XMLID_340_" fill="#717071" stroke="#808080" stroke-width="0.25" stroke-miterlimit="10" d="M59.591,11.623
					c-0.263-0.193-0.417-0.307-0.671-0.493c-5.567,0.132-11.711,1.58-18.203,5.211c-11.825,6.613-20.747,9.386-27.294,10.262
					l-0.957,0.703c6.676-0.748,15.948-3.512,28.495-10.528C47.628,13.047,53.922,11.651,59.591,11.623z"/>
				<path id="XMLID_339_" fill="#717071" stroke="#808080" stroke-width="0.25" stroke-miterlimit="10" d="M53.801,7.366
					c-0.141-0.104-0.43-0.316-0.561-0.413c-3.989,0.731-8.204,2.183-12.578,4.629c-6.822,3.815-12.674,6.347-17.665,7.98
					l-1.362,1.002c5.334-1.631,11.709-4.316,19.271-8.545C45.399,9.506,49.723,8.057,53.801,7.366z"/>
				<path id="XMLID_338_" fill="#717071" stroke="#808080" stroke-width="0.25" stroke-miterlimit="10" d="M57.132,9.815
					c-0.104-0.077-0.206-0.152-0.309-0.227c-4.92,0.387-10.255,1.829-15.866,4.885c-9.953,5.419-17.78,8.13-23.786,9.374
					L16.689,24.2c6.097-1.196,14.123-3.917,24.387-9.507C46.763,11.596,52.163,10.164,57.132,9.815z"/>
				<path id="XMLID_337_" fill="#717071" stroke="#808080" stroke-width="0.25" stroke-miterlimit="10" d="M51.744,5.854
					c-0.05-0.036-0.218-0.16-0.266-0.194c-3.366,0.778-6.886,2.076-10.521,4.057c-4.704,2.562-8.92,4.503-12.71,5.988l-0.779,0.573
					c4.019-1.525,8.536-3.58,13.608-6.341C44.766,7.926,48.334,6.621,51.744,5.854z"/>
				<path id="XMLID_336_" fill="#717071" stroke="#808080" stroke-width="0.25" stroke-miterlimit="10" d="M46.874,2.273
					c-0.002-0.001-0.179-0.131-0.179-0.131l-0.558,0.41l-0.795,0.584c0.596-0.247,1.187-0.47,1.775-0.683
					C47.113,2.45,46.875,2.275,46.874,2.273z"/>
				<path id="XMLID_335_" fill="#717071" stroke="#808080" stroke-width="0.25" stroke-miterlimit="10" d="M36.675,37.641h1.101
					c1.109-0.581,2.237-1.184,3.403-1.835c4.783-2.675,9.374-4.148,13.681-4.779c0.408-0.3,0.435-0.32,0.849-0.624
					c-4.625,0.558-9.588,2.067-14.773,4.967C39.465,36.19,38.056,36.934,36.675,37.641z"/>
				<path id="XMLID_334_" fill="#717071" stroke="#808080" stroke-width="0.25" stroke-miterlimit="10" d="M42.142,37.641h0.557
					c2.31-1.142,4.567-2.008,6.767-2.649c0.241-0.177,0.336-0.247,0.583-0.429C47.49,35.26,44.85,36.264,42.142,37.641z"/>
				<path id="XMLID_333_" fill="#717071" stroke="#808080" stroke-width="0.25" stroke-miterlimit="10" d="M67.265,21.906
					c0.24-0.177,0.3-0.221,0.536-0.394c-7.564-1.678-16.845-1.322-26.975,4.343c-22.119,12.37-34.08,11.31-39.324,9.511
					l-0.555,0.408c1.744,0.671,4.274,1.277,7.772,1.277c6.789,0,17.184-2.277,32.351-10.759
					C50.877,20.806,59.879,20.358,67.265,21.906z"/>
				<path id="XMLID_332_" fill="#717071" stroke="#808080" stroke-width="0.25" stroke-miterlimit="10" d="M61.779,25.938
					c0.311-0.229,0.318-0.234,0.628-0.461c-6.406-0.444-13.714,0.764-21.527,5.134c-5.627,3.147-10.585,5.412-14.955,7.029h1.472
					c4.068-1.599,8.621-3.737,13.728-6.593C48.596,26.869,55.601,25.615,61.779,25.938z"/>
				<path id="XMLID_331_" fill="#717071" stroke="#808080" stroke-width="0.25" stroke-miterlimit="10" d="M63.83,14.739
					c-0.186-0.136-0.221-0.163-0.404-0.297c-6.602-0.709-14.238,0.306-22.469,4.789C25.992,27.379,15.811,29.425,9.456,29.518
					l-0.345,0.253c6.355-0.021,16.685-2,31.965-10.321C49.434,14.898,57.174,13.944,63.83,14.739z"/>
				<path id="XMLID_330_" fill="#717071" stroke="#808080" stroke-width="0.25" stroke-miterlimit="10" d="M57.883,28.803
					c0.185-0.136,0.186-0.136,0.37-0.272c-5.31,0.203-11.137,1.617-17.296,4.972c-2.957,1.61-5.719,2.972-8.311,4.138h0.596
					c2.457-1.121,5.056-2.406,7.834-3.918C47.052,30.468,52.709,29.056,57.883,28.803z"/>
				<path id="XMLID_329_" fill="#717071" stroke="#808080" stroke-width="0.25" stroke-miterlimit="10" d="M64.039,24.277
					c0.141-0.104,0.151-0.112,0.291-0.214c-6.805-0.903-14.764-0.006-23.373,4.682c-8.828,4.808-15.982,7.481-21.681,8.896h1.029
					c5.555-1.478,12.425-4.13,20.771-8.676C49.521,24.366,57.336,23.437,64.039,24.277z"/>
				<path id="XMLID_328_" fill="#717071" stroke="#808080" stroke-width="0.25" stroke-miterlimit="10" d="M41.016,21.534
					c9.746-5.45,18.695-5.925,26.055-4.413c-0.459-0.336-0.487-0.358-0.939-0.69c-7.254-1.28-15.941-0.602-25.359,4.667
					C24.085,30.429,13.192,32.125,6.593,31.623l-0.719,0.528c0.854,0.088,1.78,0.142,2.79,0.142
					C15.454,32.292,25.848,30.016,41.016,21.534z"/>
				<path id="XMLID_327_" fill="#717071" stroke="#808080" stroke-width="0.25" stroke-miterlimit="10" d="M41.076,24.208
					c10.688-5.821,20.366-5.76,28.057-3.675c0.106-0.078,0.147-0.108,0.253-0.186c-7.773-2.15-17.582-2.266-28.429,3.641
					C24.236,33.094,13.463,34.59,7.373,34.24c-1.399-0.08-2.611-0.262-3.669-0.494L3.43,33.948c1.109,0.252,2.395,0.452,3.895,0.54
					C13.45,34.851,24.28,33.355,41.076,24.208z"/>
				<path id="XMLID_326_" fill="#717071" stroke="#808080" stroke-width="0.25" stroke-miterlimit="10" d="M-0.855,37.099
					c0.293,0.171,0.642,0.355,1.049,0.542h0.663c-0.597-0.243-1.085-0.488-1.481-0.712L-0.855,37.099z"/>
			</g>
			<g id="XMLID_306_">
				<path id="XMLID_324_" fill="#595757" stroke="#808080" stroke-width="0.25" stroke-miterlimit="10" d="M80.654,12.022
					c0,0-0.178,0.13-0.18,0.131c0.245,0.089,0.49,0.183,0.736,0.278L80.654,12.022z"/>
				<path id="XMLID_323_" fill="#595757" stroke="#808080" stroke-width="0.25" stroke-miterlimit="10" d="M81.211,12.432
					c-0.246-0.095-0.491-0.189-0.736-0.278c-0.001,0.001-0.239,0.176-0.244,0.18c0.589,0.212,1.18,0.436,1.775,0.683L81.211,12.432z
					"/>
				<path id="XMLID_322_" fill="#595757" stroke="#808080" stroke-width="0.25" stroke-miterlimit="10" d="M99.881,26.157
					l-0.779-0.573c-3.79-1.485-8.006-3.427-12.709-5.988c-3.637-1.98-7.156-3.279-10.522-4.057
					c-0.048,0.035-0.216,0.158-0.265,0.194c3.409,0.767,6.978,2.072,10.668,4.082C91.345,22.577,95.863,24.631,99.881,26.157z"/>
				<path id="XMLID_321_" fill="#595757" stroke="#808080" stroke-width="0.25" stroke-miterlimit="10" d="M110.658,34.08
					l-0.48-0.353c-6.006-1.243-13.833-3.954-23.785-9.374c-5.612-3.056-10.947-4.499-15.867-4.885
					c-0.103,0.075-0.204,0.15-0.309,0.227c4.969,0.349,10.369,1.781,16.057,4.877C96.537,30.162,104.563,32.883,110.658,34.08z"/>
				<path id="XMLID_320_" fill="#595757" stroke="#808080" stroke-width="0.25" stroke-miterlimit="10" d="M86.273,29.33
					c15.279,8.321,25.608,10.3,31.964,10.321l-0.345-0.253c-6.354-0.093-16.536-2.139-31.5-10.288
					c-8.231-4.482-15.867-5.497-22.47-4.789c-0.183,0.135-0.219,0.162-0.404,0.297C70.175,23.824,77.915,24.778,86.273,29.33z"/>
				<path id="XMLID_319_" fill="#595757" stroke="#808080" stroke-width="0.25" stroke-miterlimit="10" d="M86.273,34.087
					c16.795,9.147,27.625,10.643,33.752,10.28c1.499-0.087,2.784-0.287,3.894-0.539l-0.274-0.202
					c-1.058,0.231-2.27,0.413-3.668,0.494c-6.09,0.35-16.864-1.146-33.584-10.253c-12.67-6.899-23.933-5.591-32.177-2.41
					c-0.396,0.292-0.406,0.299-0.8,0.588C61.675,28.637,73.223,26.979,86.273,34.087z"/>
				<path id="XMLID_318_" fill="#595757" stroke="#808080" stroke-width="0.25" stroke-miterlimit="10" d="M49.685,38.274
					c-5.71,3.004-10.021,6.818-12.443,9.246h0.354c2.44-2.421,6.66-6.108,12.213-9.029c8.312-4.372,21.387-7.858,36.465,0.354
					c8.346,4.545,15.215,7.198,20.77,8.675h1.029c-5.698-1.414-12.853-4.088-21.68-8.895C71.214,30.359,58.053,33.871,49.685,38.274
					z"/>
				<path id="XMLID_317_" fill="#595757" stroke="#808080" stroke-width="0.25" stroke-miterlimit="10" d="M127.155,47.52
					c0.407-0.187,0.756-0.371,1.05-0.542l-0.231-0.17c-0.396,0.224-0.885,0.469-1.481,0.711H127.155z"/>
				<path id="XMLID_316_" fill="#595757" stroke="#808080" stroke-width="0.25" stroke-miterlimit="10" d="M49.685,43.031
					c-2.65,1.395-4.991,2.964-6.991,4.489h0.415c1.932-1.454,4.169-2.939,6.692-4.267c8.313-4.375,21.389-7.865,36.473,0.349
					c2.777,1.513,5.377,2.798,7.833,3.918h0.597c-2.593-1.166-5.354-2.527-8.311-4.138C71.214,35.117,58.053,38.628,49.685,43.031z"
					/>
				<path id="XMLID_315_" fill="#595757" stroke="#808080" stroke-width="0.25" stroke-miterlimit="10" d="M50.208,47.52h0.556
					c8.029-3.976,20.053-6.84,33.887,0h0.558C70.84,40.219,58.372,43.361,50.208,47.52z"/>
				<path id="XMLID_314_" fill="#595757" stroke="#808080" stroke-width="0.25" stroke-miterlimit="10" d="M90.621,19.349
					L87.834,17.3c-0.367-0.2-0.722-0.386-1.094-0.594c-2.665-1.49-5.27-2.607-7.802-3.422c-0.034,0.025-0.453,0.333-0.497,0.365
					c2.61,0.813,5.301,1.954,8.055,3.494C87.918,17.937,89.283,18.66,90.621,19.349z"/>
				<path id="XMLID_313_" fill="#595757" stroke="#808080" stroke-width="0.25" stroke-miterlimit="10" d="M105.714,30.445
					l-1.362-1.002c-4.991-1.633-10.843-4.165-17.664-7.98c-4.375-2.447-8.59-3.899-12.578-4.629
					c-0.132,0.096-0.421,0.309-0.562,0.412c4.078,0.691,8.401,2.141,12.896,4.654C94.005,26.128,100.38,28.814,105.714,30.445z"/>
				<path id="XMLID_312_" fill="#595757" stroke="#808080" stroke-width="0.25" stroke-miterlimit="10" d="M86.389,26.656
					c12.546,7.017,21.818,9.781,28.494,10.529l-0.957-0.704c-6.547-0.875-15.469-3.648-27.294-10.261
					c-6.492-3.631-12.636-5.079-18.203-5.211c-0.254,0.187-0.408,0.3-0.671,0.494C73.427,21.531,79.721,22.927,86.389,26.656z"/>
				<path id="XMLID_311_" fill="#595757" stroke="#808080" stroke-width="0.25" stroke-miterlimit="10" d="M86.334,31.413
					c15.166,8.482,25.561,10.759,32.35,10.759c1.012,0,1.937-0.053,2.791-0.141l-0.719-0.528c-6.6,0.502-17.492-1.193-34.178-10.526
					c-9.42-5.268-18.106-5.946-25.36-4.667c-0.451,0.332-0.481,0.354-0.938,0.69C67.638,25.489,76.587,25.963,86.334,31.413z"/>
				<path id="XMLID_310_" fill="#595757" stroke="#808080" stroke-width="0.25" stroke-miterlimit="10" d="M34.871,46.484
					l0.387,0.319c0.055-0.068,5.629-6.756,14.674-11.386c8.338-4.267,21.408-7.601,36.347,0.754
					c15.167,8.481,25.562,10.758,32.351,10.758c3.498,0,6.029-0.605,7.772-1.277l-0.555-0.408
					c-5.244,1.799-17.204,2.859-39.323-9.511c-15.132-8.462-28.374-5.085-36.82-0.763c-0.34,0.174-0.665,0.356-0.995,0.535
					c-5.032,3.7-9.113,6.7-11.238,8.262C35.813,45.362,34.895,46.457,34.871,46.484z"/>
				<path id="XMLID_309_" fill="#595757" stroke="#808080" stroke-width="0.25" stroke-miterlimit="10" d="M49.649,39.729
					c-4.779,2.447-8.59,5.459-11.157,7.792h0.744c2.531-2.253,6.166-5.058,10.656-7.354c8.333-4.262,21.399-7.589,36.332,0.762
					c5.105,2.855,9.658,4.994,13.728,6.592h1.472c-4.369-1.618-9.328-3.882-14.955-7.029C71.336,32.027,58.093,35.406,49.649,39.729
					z"/>
				<path id="XMLID_308_" fill="#595757" stroke="#808080" stroke-width="0.25" stroke-miterlimit="10" d="M49.595,44.485
					c-1.854,0.95-3.558,1.987-5.107,3.035h0.9c1.366-0.895,2.843-1.775,4.435-2.59c8.338-4.267,21.408-7.601,36.348,0.754
					c1.166,0.652,2.294,1.255,3.404,1.835h1.1c-1.381-0.707-2.79-1.45-4.26-2.272C71.281,36.785,58.037,40.163,49.595,44.485z"/>
				<path id="XMLID_307_" fill="#595757" stroke="#808080" stroke-width="0.25" stroke-miterlimit="10" d="M53.349,47.52h1.417
					c6.707-2.405,15.327-3.497,24.983,0h1.409C70.255,43.165,60.586,44.658,53.349,47.52z"/>
			</g>
		</g>
		<text id="XMLID_304_" transform="matrix(1 0 0 1 41.3613 70.2759)" fill="#717071" font-family="'ArialMT'" font-size="20.8566">TOP</text>
	</g>
	<g id="XMLID_1201_">
		<path id="XMLID_258_" fill="#999999" d="M-715.361,1394.266c-9.085,0-16.462,7.377-16.462,16.462
			c0,9.098,7.377,16.475,16.462,16.475c9.098,0,16.475-7.377,16.475-16.475C-698.887,1401.632-706.264,1394.266-715.361,1394.266
			L-715.361,1394.266z M-711.098,1410.728h-2.705v9.88h-3.699v-9.88h-2.473v-3.396l2.473-0.01l-0.011-2
			c0-2.773,0.754-4.472,4.032-4.472h2.725v3.407h-1.711c-1.266,0-1.336,0.48-1.336,1.366v1.698h3.064L-711.098,1410.728z
			 M-711.098,1410.728"/>
	</g>
	<g id="XMLID_1202_">
		<path id="XMLID_1220_" fill="#999999" d="M-652.822,1403.138h-9.68c-1.545,0-2.801,1.256-2.801,2.802v9.677
			c0,1.546,1.256,2.804,2.801,2.804h9.68c1.544,0,2.802-1.258,2.802-2.804v-9.677
			C-650.021,1404.394-651.278,1403.138-652.822,1403.138L-652.822,1403.138z M-657.663,1415.81c-2.772,0-5.031-2.259-5.031-5.031
			c0-2.773,2.259-5.031,5.031-5.031c2.775,0,5.031,2.258,5.031,5.031C-652.632,1413.551-654.89,1415.81-657.663,1415.81
			L-657.663,1415.81z M-652.469,1406.787c-0.657,0-1.191-0.533-1.191-1.19c0-0.655,0.534-1.19,1.191-1.19
			c0.655,0,1.19,0.535,1.19,1.19C-651.278,1406.254-651.813,1406.787-652.469,1406.787L-652.469,1406.787z M-652.469,1406.787"/>
		<path id="XMLID_1217_" fill="#999999" d="M-657.663,1407.874c-1.601,0-2.904,1.302-2.904,2.904s1.304,2.905,2.904,2.905
			c1.603,0,2.906-1.303,2.906-2.905C-654.757,1409.178-656.061,1407.874-657.663,1407.874L-657.663,1407.874z M-657.663,1407.874"/>
		<path id="XMLID_1213_" fill="#999999" d="M-657.663,1394.498c-8.967,0-16.236,7.269-16.236,16.235
			c0,8.968,7.27,16.236,16.236,16.236s16.237-7.269,16.237-16.236C-641.426,1401.767-648.696,1394.498-657.663,1394.498
			L-657.663,1394.498z M-647.896,1415.616c0,2.72-2.21,4.929-4.927,4.929h-9.68c-2.717,0-4.928-2.209-4.928-4.929v-9.677
			c0-2.717,2.211-4.929,4.928-4.929h9.68c2.717,0,4.927,2.212,4.927,4.929V1415.616z M-647.896,1415.616"/>
	</g>
	<g id="XMLID_1212_">
		<path id="XMLID_256_" fill="#999999" d="M-599.977,1394.266c-9.086,0-16.462,7.377-16.462,16.462
			c0,9.098,7.376,16.475,16.462,16.475c9.098,0,16.475-7.377,16.475-16.475C-583.502,1401.632-590.879,1394.266-599.977,1394.266
			L-599.977,1394.266z M-591.774,1407.04l0.011,0.522c0,5.357-4.081,11.537-11.54,11.537c-2.29,0-4.421-0.672-6.211-1.829
			c0.312,0.041,0.636,0.062,0.965,0.062c1.901,0,3.648-0.653,5.035-1.739c-1.778-0.03-3.265-1.206-3.788-2.814
			c0.25,0.051,0.502,0.071,0.765,0.071c0.37,0,0.733-0.051,1.065-0.141c-1.85-0.373-3.247-2.01-3.247-3.971v-0.051
			c0.543,0.303,1.165,0.483,1.829,0.504c-1.086-0.723-1.798-1.971-1.798-3.368c0-0.743,0.2-1.446,0.553-2.04
			c1.989,2.452,4.983,4.06,8.352,4.232c-0.072-0.293-0.101-0.604-0.101-0.926c0-2.231,1.81-4.051,4.051-4.051
			c1.165,0,2.22,0.494,2.964,1.276c0.916-0.18,1.788-0.512,2.572-0.975c-0.301,0.946-0.944,1.739-1.788,2.241
			c0.823-0.101,1.608-0.322,2.331-0.644C-590.298,1405.754-590.99,1406.467-591.774,1407.04L-591.774,1407.04z M-591.774,1407.04"/>
	</g>
	<g id="XMLID_1222_">
		<path id="XMLID_1241_" fill-rule="evenodd" clip-rule="evenodd" fill="#999999" d="M-542.285,1407.246
			c0-1.68-1.009-4.305-2.953-4.305c-0.608,0-1.265,0.309-1.639,0.776c-0.401,0.488-0.512,1.124-0.512,1.73
			c0,1.564,0.906,4.167,2.925,4.167c0.584,0,1.213-0.284,1.593-0.658C-542.338,1408.416-542.285,1407.672-542.285,1407.246
			L-542.285,1407.246z M-542.285,1407.246"/>
		<path id="XMLID_1236_" fill-rule="evenodd" clip-rule="evenodd" fill="#999999" d="M-525.811,1410.734
			c0-9.095-7.376-16.469-16.468-16.469c-9.094,0-16.468,7.374-16.468,16.469c0,9.092,7.374,16.468,16.468,16.468
			C-533.187,1427.202-525.811,1419.826-525.811,1410.734L-525.811,1410.734z M-536.688,1407.239h1.266v2.529h2.535v1.266h-2.535
			v2.535h-1.266v-2.535h-2.529v-1.266h2.529V1407.239z M-550.62,1416.662c0-0.85,0.418-2.039,1.799-2.859
			c1.455-0.891,3.422-1.008,4.474-1.073c-0.329-0.425-0.701-0.87-0.701-1.595c0-0.4,0.117-0.629,0.233-0.913
			c-0.257,0.022-0.519,0.045-0.752,0.045c-2.478,0-3.881-1.851-3.881-3.669c0-1.084,0.488-2.273,1.497-3.137
			c1.33-1.104,2.924-1.295,4.189-1.295h4.823l-1.498,0.843h-1.454c0.541,0.445,1.658,1.388,1.658,3.164
			c0,1.732-0.979,2.55-1.96,3.317c-0.307,0.309-0.656,0.636-0.656,1.148c0,0.519,0.35,0.798,0.606,1.009l0.84,0.657
			c1.031,0.862,1.967,1.659,1.967,3.274c0,2.2-2.128,4.423-6.154,4.423C-548.98,1420.01-550.62,1418.393-550.62,1416.662
			L-550.62,1416.662z M-550.62,1416.662"/>
		<path id="XMLID_1233_" fill-rule="evenodd" clip-rule="evenodd" fill="#999999" d="M-543.551,1413.4
			c-0.19-0.021-0.307-0.021-0.541-0.021c-0.211,0-1.469,0.051-2.456,0.38c-0.511,0.182-2.01,0.745-2.01,2.404
			c0,1.668,1.614,2.857,4.114,2.857c2.251,0,3.443-1.074,3.443-2.527C-541,1415.302-541.774,1414.666-543.551,1413.4
			L-543.551,1413.4z M-543.551,1413.4"/>
	</g>
	<g id="XMLID_248_">
		<path id="XMLID_253_" fill="#999999" d="M-484.586,1394.266c-9.094,0-16.469,7.374-16.469,16.469
			c0,9.092,7.375,16.468,16.469,16.468c9.092,0,16.468-7.376,16.468-16.468C-468.118,1401.64-475.494,1394.266-484.586,1394.266z
			 M-474.35,1409.805c-0.01,0.163-0.033,0.371-0.08,0.619c-0.126,0.789-0.395,1.543-0.783,2.244
			c-0.184,0.331-1.081,1.59-1.357,1.922c-1.514,1.823-4.049,3.929-8.289,5.975c-0.396,0.191-0.847-0.126-0.799-0.563l0.214-1.923
			c0.034-0.307-0.187-0.584-0.494-0.615c-5.019-0.525-8.892-3.941-8.892-8.076c0-4.499,4.585-8.146,10.241-8.146
			c5.497,0,9.981,3.444,10.23,7.767C-474.352,1409.134-474.331,1409.534-474.35,1409.805z"/>
		<path id="XMLID_252_" fill="#999999" d="M-488.987,1411.156h-1.7v-3.713c0-0.313-0.254-0.566-0.566-0.566
			c-0.313,0-0.567,0.254-0.567,0.566v4.279c0,0.313,0.254,0.567,0.567,0.567h2.267c0.313,0,0.567-0.254,0.567-0.567
			C-488.42,1411.41-488.674,1411.156-488.987,1411.156z"/>
		<path id="XMLID_251_" fill="#999999" d="M-487.191,1406.877h-0.248c-0.244,0-0.442,0.198-0.442,0.442v4.527
			c0,0.245,0.198,0.443,0.442,0.443h0.248c0.245,0,0.443-0.198,0.443-0.443v-4.527
			C-486.748,1407.075-486.946,1406.877-487.191,1406.877z"/>
		<path id="XMLID_250_" fill="#999999" d="M-482.044,1406.877c-0.313,0-0.566,0.254-0.566,0.566v2.614c0,0-2.264-2.952-2.298-2.991
			c-0.108-0.121-0.268-0.196-0.445-0.189c-0.309,0.012-0.545,0.281-0.545,0.59v4.256c0,0.313,0.254,0.567,0.567,0.567
			s0.566-0.254,0.566-0.567v-2.598c0,0,2.298,2.979,2.332,3.01c0.101,0.095,0.235,0.153,0.384,0.155
			c0.314,0.003,0.572-0.275,0.572-0.591v-4.256C-481.477,1407.131-481.73,1406.877-482.044,1406.877z"/>
		<path id="XMLID_249_" fill="#999999" d="M-477.793,1408.01c0.313,0,0.567-0.253,0.567-0.566c0-0.313-0.254-0.566-0.567-0.566
			h-2.267c-0.313,0-0.567,0.254-0.567,0.566v4.279c0,0.313,0.254,0.567,0.567,0.567h2.267c0.313,0,0.567-0.254,0.567-0.567
			c0-0.313-0.254-0.566-0.567-0.566h-1.7v-1.006h1.7c0.313,0,0.567-0.254,0.567-0.567c0-0.313-0.254-0.566-0.567-0.566h-1.7v-1.007
			H-477.793z"/>
	</g>
	<g id="XMLID_44_">
		<g id="XMLID_1370_">
			<text transform="matrix(1 0 0 1 -1602.6265 1401.0098)"><tspan x="0" y="0" fill="#919191" font-family="'MicrosoftJhengHeiBold'" font-size="14">T </tspan><tspan x="12.311" y="0" fill="#919191" font-family="'MicrosoftJhengHeiRegular'" font-size="14">. +886-4-2599-1023</tspan></text>
		</g>
		<g id="XMLID_1396_">
			<text transform="matrix(1 0 0 1 -1440.626 1401.0107)"><tspan x="0" y="0" fill="#919191" font-family="'MicrosoftJhengHeiBold'" font-size="14">F</tspan><tspan x="7.833" y="0" fill="#919191" font-family="'MicrosoftJhengHeiRegular'" font-size="14"> . +886-4-2599-1023</tspan></text>
		</g>
		<g id="XMLID_1397_">
			<text transform="matrix(1 0 0 1 -1275.127 1401.0117)"><tspan x="0" y="0" fill="#919191" font-family="'MicrosoftJhengHeiBold'" font-size="14">A</tspan><tspan x="9.783" y="0" fill="#919191" font-family="'MicrosoftJhengHeiRegular'" font-size="14"> . 台中市南屯區東興路二段106號9樓</tspan></text>
		</g>
	</g>
</g>
<g id="圖層_2">
	
		<rect id="XMLID_171_" x="-1799.443" y="-577.498" opacity="0.47" fill="none" stroke="#00FFFF" stroke-width="0.25" stroke-miterlimit="10" width="950" height="2113.998"/>
</g>
</svg>
