<?xml version="1.0" encoding="utf-8"?>
<!-- Generator: Adobe Illustrator 16.0.0, SVG Export Plug-In . SVG Version: 6.00 Build 0)  -->
<!DOCTYPE svg PUBLIC "-//W3C//DTD SVG 1.1//EN" "http://www.w3.org/Graphics/SVG/1.1/DTD/svg11.dtd">
<svg version="1.1" id="圖層_1" xmlns="http://www.w3.org/2000/svg" xmlns:xlink="http://www.w3.org/1999/xlink" x="0px" y="0px"
	 width="134.835px" height="66.376px" viewBox="6.5 51.791 134.835 66.376" enable-background="new 6.5 51.791 134.835 66.376"
	 xml:space="preserve">
<g id="XMLID_55_">
	<g id="XMLID_879_">
		<g id="XMLID_880_">
			<g>
				<defs>
					<polygon id="SVGID_1_" points="91.453,60.861 41.573,97.822 91.453,97.777 141.335,97.822 					"/>
				</defs>
				<clipPath id="SVGID_2_">
					<use xlink:href="#SVGID_1_"  overflow="visible"/>
				</clipPath>
				<g id="XMLID_882_" clip-path="url(#SVGID_2_)">
					<path id="XMLID_2_" fill="#595758" d="M41.7,72.067l-0.253-0.448c37.987-21.498,54.763-13.99,69.565-7.366
						c10.209,4.567,19.021,8.514,33.024,1.439l0.231,0.458c-14.219,7.186-23.141,3.194-33.469-1.428
						C96.111,58.148,79.459,50.697,41.7,72.067z"/>
					<path id="XMLID_12_" fill="#5A5959" d="M41.617,76.166l-0.332-0.504C77.99,53.83,95.287,61.32,110.719,67.985
						c10.475,4.541,19.613,8.494,33.502,1.831l0.237,0.555c-14.12,6.771-23.429,2.753-33.976-1.824
						C95.193,61.94,78.055,54.515,41.617,76.166z"/>
					<path id="XMLID_11_" fill="#5B5A5A" d="M41.534,80.266l-0.411-0.562c35.423-22.164,53.24-14.691,69.305-7.986
						c10.739,4.514,20.204,8.475,33.979,2.224l0.244,0.65c-14.022,6.355-23.717,2.313-34.481-2.222
						C94.277,65.731,76.65,58.333,41.534,80.266z"/>
					<path id="XMLID_10_" fill="#5D5B5C" d="M41.451,84.363l-0.49-0.616c34.142-22.498,52.479-15.043,69.176-8.296
						c11.004,4.484,20.795,8.453,34.454,2.613l0.251,0.748c-13.927,5.94-24.005,1.871-34.988-2.619
						C93.361,69.523,75.245,62.15,41.451,84.363z"/>
					<path id="XMLID_9_" fill="#5E5D5D" d="M41.368,88.461L40.8,87.789c32.86-22.831,51.718-15.393,69.046-8.605
						c11.27,4.459,21.385,8.436,34.932,3.008l0.257,0.842c-13.829,5.527-24.283,1.408-35.495-3.016
						C92.459,73.279,73.84,65.969,41.368,88.461z"/>
					<path id="XMLID_8_" fill="#5F5E5E" d="M41.285,92.561l-0.647-0.729c31.578-23.165,50.955-15.744,68.917-8.916
						c11.533,4.432,21.977,8.415,35.406,3.398l0.266,0.938c-13.732,5.113-24.572,0.967-36.004-3.412
						C91.543,77.068,72.436,69.786,41.285,92.561z"/>
					<path id="XMLID_7_" fill="#606060" d="M41.203,96.658l-0.726-0.784c30.296-23.497,50.194-16.095,68.787-9.226
						c11.799,4.404,22.566,8.395,35.885,3.791l0.271,1.033c-13.635,4.699-24.86,0.525-36.51-3.81
						C90.627,80.859,71.031,73.604,41.203,96.658z"/>
					<path id="XMLID_6_" fill="#616161" d="M41.12,100.757l-0.805-0.84c29.015-23.831,49.432-16.444,68.658-9.535
						c12.063,4.378,23.156,8.374,36.358,4.183l0.276,1.131c-13.537,4.285-25.157,0.107-37.017-4.207
						C89.697,84.689,69.626,77.422,41.12,100.757z"/>
					<path id="XMLID_5_" fill="#636362" d="M41.037,104.855l-0.883-0.896c27.733-24.164,48.67-16.796,68.528-9.846
						c12.33,4.351,23.748,8.355,36.836,4.574l0.284,1.228c-13.44,3.87-25.446-0.332-37.524-4.604
						C88.781,88.48,68.221,81.24,41.037,104.855z"/>
					<path id="XMLID_4_" fill="#646464" d="M40.954,108.953l-0.962-0.951C66.443,83.505,87.9,90.855,108.391,97.848
						c12.594,4.322,24.338,8.334,37.313,4.967l0.29,1.32c-13.345,3.457-25.735-0.771-38.031-5
						C87.865,92.271,66.816,85.059,40.954,108.953z"/>
					<path id="XMLID_3_" fill="#656565" d="M40.871,113.053l-1.042-1.009c25.17-24.83,47.147-17.497,68.271-10.464
						c12.857,4.295,24.928,8.314,37.787,5.357l0.297,1.418c-13.246,3.041-26.021-1.213-38.537-5.397
						C86.949,96.064,65.411,88.876,40.871,113.053z"/>
					<path id="XMLID_1_" fill="#666767" d="M40.788,117.15l-1.12-1.063c23.889-25.164,46.385-17.849,68.141-10.774
						c13.123,4.269,25.52,8.295,38.265,5.75l0.304,1.515c-13.148,2.628-26.313-1.653-39.046-5.796
						C86.033,99.855,64.006,92.693,40.788,117.15z"/>
				</g>
			</g>
		</g>
	</g>
	<g id="XMLID_779_">
		<path id="XMLID_833_" fill="#5D5B5B" d="M56.835,51.791c-0.118,0.006-0.235,0.013-0.352,0.021l-1.443,1.069
			c0.973-0.093,1.974-0.159,3.011-0.189L56.835,51.791z"/>
		<path id="XMLID_838_" fill="#5D5B5B" d="M67.089,59.389l-1.35-1c-9.434-0.746-16.012,1.479-22.464,3.671
			c-0.383,0.13-0.765,0.259-1.146,0.388l-2.195,1.627c1.209-0.386,2.41-0.793,3.618-1.203
			C50.222,60.606,57.027,58.304,67.089,59.389z"/>
		<path id="XMLID_876_" fill="#5D5B5B" d="M52.392,88.458h1.07c1.276-1,2.591-1.373,3.962-1.915l1.078-0.723
			C56.339,86.59,54.329,87.458,52.392,88.458z"/>
		<path id="XMLID_877_" fill="#5D5B5B" d="M72.161,63.147l-1.462-1.084c-11.88-1.859-19.427,0.939-26.811,3.687
			c-3.478,1.294-6.89,2.56-10.683,3.312l-1.484,1.1c4.51-0.694,8.437-2.154,12.452-3.648C51.765,63.688,59.53,60.804,72.161,63.147z
			"/>
		<path id="XMLID_878_" fill="#5D5B5B" d="M64.55,81.107l1.073-0.795c-7.401,0.779-12.884,4.045-18.272,7.138
			c-0.561,0.321-1.12,1.008-1.679,1.008h1.129c0.276,0,0.552-0.483,0.828-0.642C52.674,84.922,57.8,81.988,64.55,81.107z"/>
		<path id="XMLID_887_" fill="#5D5B5B" d="M62.429,55.936l-1.272-0.942c-3.917-0.031-7.337,0.437-10.506,1.141l-1.858,1.376
			C52.808,56.477,57.162,55.747,62.429,55.936z"/>
		<path id="XMLID_888_" fill="#5D5B5B" d="M72.602,75.143l0.759-0.563c-12.209-1.72-19.754,2.084-27.129,5.809
			c-8.849,4.467-17.271,8.715-33.174,3.604l-0.624,0.463c5.424,1.786,10.011,2.528,14.028,2.526c8.137,0,14-2.959,20.06-6.02
			C53.656,77.359,60.955,73.686,72.602,75.143z"/>
		<path id="XMLID_889_" fill="#5D5B5B" d="M68.874,77.904l0.802-0.594c-9.818-0.326-16.417,3.223-22.881,6.707
			c-3.155,1.701-6.256,3.371-9.667,4.588l1.635-0.002c2.943-1.164,5.644-2.615,8.316-4.057
			C53.285,81.202,59.614,77.797,68.874,77.904z"/>
		<path id="XMLID_890_" fill="#5D5B5B" d="M8.775,87.165c1.425,0.562,2.785,1.036,4.108,1.463l1.922-0.002
			c-1.728-0.507-3.548-1.13-5.467-1.878L8.775,87.165z"/>
		<path id="XMLID_891_" fill="#5D5B5B" d="M44.779,70.142c8.543-3.455,17.305-7,33.096-2.761l-1.646-1.22
			c-14.862-3.558-23.403-0.106-31.74,3.266c-5.499,2.225-10.829,4.378-17.8,4.463l-1.041,0.771c0.206,0.004,0.422,0.019,0.625,0.019
			C33.564,74.679,39.083,72.447,44.779,70.142z"/>
		<path id="XMLID_892_" fill="#5D5B5B" d="M45.372,73.76c8.581-3.755,17.39-7.598,33.442-3.222l0.75-0.556
			c-16.633-4.692-25.678-0.745-34.485,3.11c-6.902,3.02-13.542,5.922-23.553,4.623l-0.832,0.616
			c1.994,0.295,3.871,0.446,5.629,0.446C33.903,78.779,39.544,76.311,45.372,73.76z"/>
		<path id="XMLID_893_" fill="#5D5B5B" d="M45.952,77.365c7.904-3.722,16.011-7.521,29.896-4.628l0.744-0.552
			c-14.454-3.187-22.797,0.728-30.932,4.56c-7.975,3.756-15.605,7.34-28.582,4.267l-0.715,0.53
			c3.726,0.929,7.034,1.338,10.024,1.338C34.248,82.88,40.004,80.169,45.952,77.365z"/>
	</g>
</g>
<text transform="matrix(1 0 0 1 57.188 116.7734)" fill="#717071" font-family="'ArialMT'" font-size="17.7053">T</text>
<text transform="matrix(1 0 0 1 68.0029 116.7734)" fill="#717071" font-family="'ArialMT'" font-size="17.7053">OP</text>
</svg>
