<?xml version="1.0" encoding="utf-8"?>
<!-- Generator: Adobe Illustrator 16.0.0, SVG Export Plug-In . SVG Version: 6.00 Build 0)  -->
<!DOCTYPE svg PUBLIC "-//W3C//DTD SVG 1.1//EN" "http://www.w3.org/Graphics/SVG/1.1/DTD/svg11.dtd">
<svg version="1.1" id="Layer_1" xmlns="http://www.w3.org/2000/svg" xmlns:xlink="http://www.w3.org/1999/xlink" x="0px" y="0px"
	 width="24px" height="24px" viewBox="0 0 24 24" enable-background="new 0 0 24 24" xml:space="preserve">
<g>
	<path fill="#D4DCDD" stroke="#D3DBDC" stroke-width="0.5" stroke-miterlimit="10" d="M20.223,3.777
		c-2.195-2.199-5.121-3.41-8.224-3.41c-3.104,0-6.03,1.211-8.224,3.41S0.367,8.895,0.367,12s1.211,6.029,3.409,8.223
		c2.199,2.193,5.12,3.41,8.224,3.41s6.029-1.213,8.223-3.41c2.195-2.197,3.41-5.117,3.41-8.223
		C23.631,8.895,22.42,5.97,20.223,3.777z M22.576,11.479h-4.512c-0.041-1.795-0.295-3.523-0.736-5.057
		c0.863-0.442,1.662-0.998,2.398-1.652C21.391,6.545,22.447,8.89,22.576,11.479z M12.521,12.521h4.506
		c-0.037,1.652-0.266,3.234-0.66,4.65c-1.215-0.49-2.512-0.775-3.846-0.838V12.521z M18.979,4.043
		c-0.607,0.535-1.273,0.992-1.975,1.371c-0.182-0.503-0.387-0.978-0.615-1.424c-0.449-0.893-0.963-1.623-1.527-2.184
		C16.406,2.239,17.805,3.012,18.979,4.043z M12.521,1.574c1.086,0.242,2.111,1.242,2.938,2.877c0.225,0.441,0.424,0.912,0.6,1.41
		c-1.117,0.461-2.309,0.73-3.539,0.793v-5.08H12.521z M16.371,6.862c0.389,1.405,0.613,2.978,0.65,4.62h-4.5V7.703
		C13.859,7.642,15.156,7.352,16.371,6.862L16.371,6.862z M11.479,11.479H6.972C7.01,9.836,7.232,8.264,7.623,6.857
		c1.214,0.494,2.515,0.778,3.85,0.836v3.783h0.006V11.479z M11.481,1.574v5.08c-1.229-0.063-2.425-0.332-3.536-0.793
		c0.176-0.498,0.375-0.969,0.598-1.41C9.37,2.816,10.396,1.816,11.481,1.574z M9.141,1.807C8.576,2.367,8.064,3.103,7.613,3.99
		C7.391,4.437,7.185,4.912,7.002,5.414C6.298,5.035,5.639,4.578,5.025,4.043C6.197,3.012,7.598,2.239,9.141,1.807L9.141,1.807z
		 M4.275,4.77c0.735,0.654,1.537,1.207,2.396,1.652C6.23,7.959,5.975,9.684,5.938,11.479H1.426C1.555,8.89,2.613,6.545,4.275,4.77z
		 M1.426,12.521h4.512c0.041,1.809,0.297,3.541,0.745,5.086c-0.854,0.441-1.657,0.986-2.389,1.641
		C2.619,17.471,1.555,15.119,1.426,12.521z M5.045,19.977c0.607-0.531,1.267-0.988,1.965-1.363c0.181,0.488,0.381,0.959,0.604,1.396
		c0.45,0.893,0.963,1.623,1.527,2.188C7.609,21.766,6.213,20.998,5.045,19.977L5.045,19.977z M11.481,22.428
		c-1.087-0.244-2.112-1.244-2.938-2.877c-0.219-0.434-0.411-0.895-0.588-1.385c1.111-0.459,2.304-0.73,3.527-0.787L11.481,22.428
		L11.481,22.428z M7.637,17.172c-0.394-1.416-0.623-2.998-0.66-4.65h4.505v3.813C10.148,16.391,8.852,16.676,7.637,17.172
		L7.637,17.172z M12.525,22.428v-5.049c1.227,0.061,2.416,0.328,3.527,0.787c-0.174,0.49-0.369,0.951-0.586,1.385
		C14.637,21.182,13.613,22.184,12.525,22.428L12.525,22.428z M14.867,22.193c0.564-0.561,1.078-1.297,1.529-2.189
		c0.221-0.438,0.422-0.908,0.602-1.396c0.699,0.377,1.357,0.83,1.967,1.363C17.795,20.998,16.4,21.766,14.867,22.193L14.867,22.193z
		 M19.719,19.25c-0.73-0.65-1.531-1.201-2.389-1.643c0.445-1.543,0.703-3.279,0.746-5.084h4.514
		C22.455,15.119,21.391,17.471,19.719,19.25L19.719,19.25z"/>
</g>
</svg>
