<?xml version="1.0" encoding="utf-8"?>
<!-- Generator: Adobe Illustrator 16.0.0, SVG Export Plug-In . SVG Version: 6.00 Build 0)  -->
<!DOCTYPE svg PUBLIC "-//W3C//DTD SVG 1.1//EN" "http://www.w3.org/Graphics/SVG/1.1/DTD/svg11.dtd">
<svg version="1.1" id="Layer_1" xmlns="http://www.w3.org/2000/svg" xmlns:xlink="http://www.w3.org/1999/xlink" x="0px" y="0px"
	 width="24px" height="24px" viewBox="0 0 24 24" enable-background="new 0 0 24 24" xml:space="preserve">
<g>
	<path fill="#D4DCDD" stroke="#D3DBDC" stroke-miterlimit="10" d="M5.208,15.775c2.263,2.703,4.983,4.83,8.09,6.336
		c1.185,0.562,2.765,1.227,4.527,1.34c0.108,0.005,0.213,0.01,0.323,0.01c1.182,0,2.131-0.408,2.904-1.25
		c0.006-0.005,0.016-0.014,0.021-0.023c0.273-0.332,0.589-0.631,0.917-0.949c0.223-0.215,0.45-0.438,0.67-0.663
		c1.011-1.056,1.011-2.396-0.011-3.415l-2.854-2.855c-0.483-0.504-1.063-0.77-1.672-0.77s-1.192,0.266-1.69,0.765l-1.699,1.699
		c-0.157-0.089-0.32-0.17-0.471-0.246c-0.19-0.095-0.365-0.185-0.522-0.284c-1.55-0.982-2.954-2.267-4.3-3.914
		C8.763,10.696,8.308,9.973,7.99,9.238c0.446-0.404,0.862-0.827,1.267-1.24c0.144-0.147,0.29-0.294,0.438-0.441
		c0.511-0.514,0.789-1.108,0.789-1.71c0-0.604-0.271-1.197-0.789-1.71L8.278,2.719C8.11,2.554,7.955,2.391,7.792,2.226
		C7.479,1.902,7.151,1.569,6.828,1.27C6.339,0.791,5.765,0.54,5.157,0.54c-0.604,0-1.184,0.252-1.691,0.736L1.69,3.053
		C1.044,3.697,0.678,4.481,0.602,5.388c-0.089,1.135,0.119,2.341,0.66,3.801C2.092,11.445,3.347,13.539,5.208,15.775z M1.761,5.488
		C1.818,4.857,2.06,4.33,2.515,3.873l1.768-1.766c0.276-0.266,0.58-0.404,0.875-0.404c0.289,0,0.583,0.139,0.854,0.413
		c0.32,0.296,0.618,0.604,0.94,0.932C7.112,3.213,7.28,3.379,7.446,3.55l1.416,1.416C9.156,5.26,9.308,5.559,9.308,5.854
		S9.156,6.447,8.861,6.741c-0.147,0.147-0.294,0.3-0.441,0.447C7.979,7.634,7.566,8.057,7.109,8.461
		c-0.01,0.01-0.013,0.014-0.023,0.024C6.692,8.879,6.754,9.255,6.849,9.54c0.003,0.014,0.008,0.022,0.014,0.038
		c0.365,0.877,0.873,1.713,1.667,2.711c1.424,1.758,2.924,3.121,4.578,4.171c0.205,0.132,0.422,0.237,0.629,0.343
		c0.19,0.094,0.367,0.184,0.521,0.283c0.021,0.01,0.034,0.021,0.053,0.029c0.157,0.08,0.311,0.117,0.463,0.117
		c0.379,0,0.625-0.241,0.707-0.322l1.774-1.776c0.276-0.274,0.575-0.423,0.869-0.423c0.36,0,0.655,0.225,0.841,0.423l2.863,2.86
		c0.57,0.57,0.564,1.188-0.014,1.79c-0.199,0.215-0.408,0.419-0.633,0.632c-0.332,0.322-0.68,0.654-0.99,1.029
		c-0.549,0.592-1.197,0.865-2.041,0.865c-0.078,0-0.166-0.006-0.246-0.008c-1.557-0.102-3.006-0.709-4.094-1.228
		c-2.954-1.431-5.548-3.457-7.7-6.031c-1.773-2.133-2.963-4.119-3.752-6.247C1.869,7.492,1.685,6.444,1.761,5.488z"/>
</g>
</svg>
