<?xml version="1.0" encoding="utf-8"?>
<!-- Generator: Adobe Illustrator 16.0.0, SVG Export Plug-In . SVG Version: 6.00 Build 0)  -->
<!DOCTYPE svg PUBLIC "-//W3C//DTD SVG 1.1//EN" "http://www.w3.org/Graphics/SVG/1.1/DTD/svg11.dtd">
<svg version="1.1" id="圖層_1" xmlns="http://www.w3.org/2000/svg" xmlns:xlink="http://www.w3.org/1999/xlink" x="0px" y="0px"
	 width="579.746px" height="634px" viewBox="0 0 579.746 634" enable-background="new 0 0 579.746 634" xml:space="preserve">
<g id="圖層_1_1_">
	<g>
		<g>
			<path fill="#595757" d="M480.329,503.141c-0.742-2.399-3.286-3.748-5.688-3.001l-19.372,5.993v-42.234h15.793
				c2.512,0,4.547-2.035,4.547-4.547c0-2.511-2.036-4.546-4.547-4.546H455.27V438.06c0-2.511-2.035-4.547-4.547-4.547
				c-2.511,0-4.547,2.036-4.547,4.547v16.746h-18.867c-2.511,0-4.547,2.035-4.547,4.546c0,2.512,2.036,4.547,4.547,4.547h18.867
				v45.047l-22.06,6.824c-2.399,0.742-3.742,3.288-3,5.687c0.604,1.952,2.4,3.205,4.342,3.205c0.445,0,0.897-0.065,1.345-0.205
				l50.526-15.63C479.728,508.086,481.071,505.538,480.329,503.141z"/>
			<path fill="#595757" d="M575.199,433.513h-43.23v-9.917c0-2.512-2.036-4.548-4.547-4.548s-4.547,2.036-4.547,4.548v9.917h-42.574
				c-2.511,0-4.547,2.036-4.547,4.547c0,2.512,2.036,4.547,4.547,4.547h24.194v13.67c0,47.226-26.049,78.023-42.469,86.343
				c-2.24,1.137-3.136,3.872-2,6.111c0.801,1.582,2.399,2.493,4.059,2.493c0.691,0,1.393-0.158,2.052-0.491
				c10.645-5.394,22.073-17.074,30.573-31.241c6.158-10.266,13.25-26.017,15.847-46.74h43.322c3.612,0,5.96,0.543,6.98,1.611
				c1.251,1.313,1.385,4.316,1.283,6.508l-3.324,48.268c-0.647,8.105-4.873,9.81-8.305,9.81h-15.536
				c-2.511,0-4.546,2.035-4.546,4.547s2.036,4.546,4.546,4.546h15.536c9.819,0,16.475-6.966,17.372-18.228l3.334-48.414
				c0.282-5.995-0.955-10.35-3.781-13.313c-3.787-3.969-9.554-4.428-13.561-4.428h-42.516c0.132-2.409,0.225-4.854,0.225-7.381
				v-13.67h61.61c2.511,0,4.547-2.035,4.547-4.547C579.746,435.55,577.71,433.513,575.199,433.513z"/>
		</g>
		<path fill="#52726C" d="M289.713,372.658c-102.059,0-185.088-83.028-185.088-185.085S187.655,2.485,289.713,2.485
			c102.058,0,185.085,83.032,185.085,185.088S391.77,372.658,289.713,372.658z M289.713,19.939
			c-92.433,0-167.634,75.201-167.634,167.634s75.201,167.631,167.634,167.631c92.433,0,167.631-75.197,167.631-167.631
			S382.145,19.939,289.713,19.939z"/>
		<path fill="#52726C" d="M261.389,106.897h-123.71c-4.82,0-8.727-3.907-8.727-8.729c0-4.818,3.907-8.727,8.727-8.727h123.71
			c4.82,0,8.727,3.907,8.727,8.727C270.115,102.99,266.208,106.897,261.389,106.897z"/>
		<path fill="#52726C" d="M203.665,349.041c-4.82,0-8.727-3.907-8.727-8.728V33.612c0-4.82,3.907-8.727,8.727-8.727
			s8.727,3.906,8.727,8.727v306.702C212.392,345.134,208.485,349.041,203.665,349.041z"/>
		<path fill="#52726C" d="M297.794,243.892c-2.321,0-4.638-0.92-6.354-2.744l-87.107-92.498l-80.275,84.197
			c-3.326,3.483-8.85,3.616-12.338,0.294c-3.489-3.327-3.621-8.851-0.295-12.342l86.631-90.86c1.648-1.726,3.931-2.703,6.317-2.703
			c0.009,0,0.017,0,0.027,0c2.396,0.007,4.684,0.998,6.325,2.744l93.421,99.203c3.306,3.508,3.141,9.029-0.369,12.337
			C302.089,243.104,299.94,243.892,297.794,243.892z"/>
		<path fill="#52726C" d="M465.722,207.396c-2.287,0-4.568-0.895-6.282-2.67L356.196,97.693c-1.173-1.129-3.917-2.922-6.894,0.085
			l-91.99,93.896c-3.372,3.438-8.901,3.498-12.341,0.127c-3.443-3.374-3.499-8.9-0.126-12.345l92.024-93.93
			c8.917-8.996,22.528-9.051,31.688-0.149L472,192.611c3.346,3.467,3.247,8.993-0.222,12.341
			C470.085,206.585,467.902,207.396,465.722,207.396z"/>
		<path fill="#52726C" d="M201.509,349.041c-2.105,0-4.217-0.757-5.892-2.291c-3.554-3.256-3.798-8.773-0.542-12.33l141.593-154.63
			c4.74-4.871,10.2-7.355,15.973-7.387c0.036,0,0.07,0,0.104,0c5.78,0,11.282,2.461,15.921,7.128l82.397,86.12
			c3.331,3.484,3.211,9.007-0.271,12.34c-3.484,3.331-9.01,3.205-12.34-0.271l-82.282-86c-1.152-1.159-2.412-1.861-3.429-1.861
			c-0.003,0-0.007,0-0.012,0c-1.315,0.007-2.68,1.203-3.375,1.919L207.947,346.208C206.225,348.086,203.871,349.041,201.509,349.041
			z"/>
		<g>
			<path fill="#595757" d="M46.328,419.709c-2.148-1.301-4.944-0.622-6.247,1.527l-39.42,64.921
				c-1.303,2.146-0.62,4.942,1.526,6.246c0.738,0.446,1.552,0.66,2.356,0.66c1.535,0,3.035-0.777,3.89-2.188l15.601-25.693v81.89
				c0,2.512,2.036,4.547,4.547,4.547c2.511,0,4.547-2.035,4.547-4.547v-96.866l14.726-24.251
				C49.157,423.809,48.474,421.012,46.328,419.709z"/>
			<path fill="#595757" d="M175.891,459.714h-12.607v-23.856c0-4.578,0-7.602-2.478-9.888c-2.319-2.141-5.278-2.141-10.178-2.141
				H65.794c-2.511,0-4.546,2.036-4.546,4.548c0,2.511,2.035,4.547,4.546,4.547h34.44v26.79H56.13c-2.511,0-4.546,2.034-4.546,4.547
				c0,2.511,2.036,4.546,4.546,4.546h44.104v25.201H56.442c-2.511,0-4.547,2.036-4.547,4.547c0,2.512,2.036,4.547,4.547,4.547
				h43.792v12.131c0,15.275-9.341,25.365-13.865,27.858c-2.199,1.213-3,3.979-1.787,6.177c0.829,1.504,2.383,2.354,3.986,2.354
				c0.742,0,1.495-0.183,2.191-0.564c7.179-3.958,18.569-17.184,18.569-35.823v-12.131h37.755c10.447,0,16.201-5.996,16.201-16.884
				v-17.411h12.607c2.511,0,4.546-2.035,4.546-4.546C180.437,461.748,178.401,459.714,175.891,459.714z M109.328,432.924h41.3
				c1.284,0,2.594,0,3.532,0.042c0.03,0.814,0.03,1.893,0.03,2.89v23.858h-44.862V432.924z M154.19,486.218
				c0,6.549-2.499,7.79-7.107,7.79h-37.755v-25.201h44.862V486.218z"/>
		</g>
		<g>
			<path fill="#595757" d="M346.724,472.865c-2.289-4.923-5.063-9.479-9.819-9.479h-0.122c-4.76,0-7.535,4.556-9.772,9.372
				l-26.739,53.823c-3.499,6.26-3.901,12.595-1.099,17.397c2.539,4.35,7.411,6.846,13.365,6.846h49.032
				c5.805,0,10.563-2.477,13.059-6.797c2.794-4.839,2.347-11.197-1.226-17.464L346.724,472.865z M366.754,539.481
				c-1.132,1.959-3.735,2.252-5.185,2.252h-49.032c-1.549,0-4.325-0.304-5.511-2.337c-1.131-1.936-0.672-5.095,1.224-8.451
				l26.955-54.246c0.673-1.447,1.217-2.443,1.635-3.124c0.428,0.695,0.988,1.723,1.689,3.23l26.79,53.927l0.134,0.249
				C367.396,534.35,367.883,537.527,366.754,539.481z"/>
			<path fill="#595757" d="M283.388,495.42l-25.115-16.577V442.58h25.882c2.511,0,4.547-2.034,4.547-4.546s-2.036-4.547-4.547-4.547
				h-25.882v-9.892c0-2.512-2.036-4.548-4.546-4.548c-2.511,0-4.547,2.036-4.547,4.548v9.892h-25.882
				c-2.511,0-4.546,2.035-4.546,4.547s2.036,4.546,4.546,4.546h25.882v13.981l-34.858,43.083c-1.58,1.952-1.277,4.813,0.674,6.394
				c0.842,0.683,1.853,1.014,2.858,1.014c1.325,0,2.639-0.577,3.537-1.688l27.79-34.346v10.313c0,0.003,0,0.006,0,0.009v65.338
				c0,2.511,2.036,4.547,4.547,4.547c2.511,0,4.546-2.036,4.546-4.547v-56.938l20.105,13.271c0.772,0.509,1.641,0.752,2.5,0.752
				c1.477,0,2.924-0.719,3.799-2.043C286.061,499.622,285.483,496.803,283.388,495.42z"/>
			<path fill="#595757" d="M307.127,440.206c-2.251-1.108-4.979-0.185-6.088,2.068l-16.559,33.603
				c-1.11,2.253-0.185,4.979,2.068,6.088c0.646,0.317,1.332,0.471,2.006,0.471c1.677,0,3.292-0.933,4.083-2.539l16.559-33.602
				C310.305,444.041,309.38,441.315,307.127,440.206z"/>
			<path fill="#595757" d="M388.506,475.82l-22.646-44.387l-0.105-0.223c-2.162-4.597-4.206-7.608-12.587-7.608h-42.109
				c-2.511,0-4.546,2.035-4.546,4.547c0,2.511,2.036,4.547,4.546,4.547h42.109c2.66,0,3.266,0.341,3.272,0.341
				c0.228,0.22,0.724,1.273,1.087,2.044l0.138,0.295c0.02,0.042,0.041,0.085,0.062,0.126l22.68,44.45
				c0.803,1.575,2.398,2.482,4.053,2.482c0.696,0,1.401-0.16,2.063-0.499C388.759,480.796,389.648,478.057,388.506,475.82z"/>
		</g>
		<g>
			<path fill="#595757" d="M244.9,585.591c-3.789-2.117-8.042-3.178-12.76-3.178c-7.204,0-13.083,2.256-17.638,6.763
				c-4.556,4.507-6.834,10.744-6.834,18.711c0,4.213,0.976,8.208,2.929,11.981c1.951,3.777,4.821,6.757,8.61,8.939
				c3.787,2.182,8.088,3.272,12.898,3.272c4.439,0,8.576-0.987,12.411-2.964c3.835-1.974,6.798-4.883,8.89-8.725
				c2.091-3.842,3.137-8.195,3.137-13.063c0-4.801-0.993-9.096-2.981-12.883C251.575,590.659,248.687,587.709,244.9,585.591z
				 M244.638,621.604c-3.289,3.361-7.477,5.041-12.566,5.041c-4.998,0-9.151-1.664-12.462-4.993
				c-3.312-3.328-4.968-7.884-4.968-13.669c0-7.225,1.724-12.381,5.175-15.47c3.453-3.087,7.572-4.633,12.359-4.633
				c3.369,0,6.409,0.803,9.117,2.406c2.707,1.604,4.764,3.862,6.171,6.776c1.404,2.914,2.108,6.324,2.108,10.231
				C249.571,613.473,247.928,618.242,244.638,621.604z"/>
			<polygon fill="#595757" points="301.824,620.759 274.981,582.375 268.043,582.375 268.043,631.263 274.527,631.263 
				274.527,592.846 301.371,631.263 308.309,631.263 308.309,582.375 301.824,582.375 			"/>
			<path fill="#595757" d="M422.414,626.197h-24.74c-2.86,0-5.508-0.691-5.508-5.709v-10.254h25.862
				c1.682,0,3.046-1.281,3.046-2.859c0-1.579-1.364-2.86-3.046-2.86h-25.862V594.26c0-5.018,2.647-5.71,5.508-5.71h22.438
				c1.681,0,3.045-1.281,3.045-2.86s-1.364-2.86-3.045-2.86h-22.438c-7.263,0-11.6,4.272-11.6,11.432v26.229
				c0,7.158,4.336,11.431,11.6,11.431h24.74c1.682,0,3.046-1.281,3.046-2.86S424.096,626.197,422.414,626.197z"/>
			<path fill="#595757" d="M110.24,620.555v-10.225h29.789v-5.913H110.24v-10.226c0-4.935,2.598-5.612,5.405-5.612h25.317v-5.914
				h-25.317c-7.327,0-11.699,4.31-11.699,11.526v26.362c0,7.219,4.373,11.526,11.699,11.526h26.467v-5.913h-26.467
				C112.837,626.169,110.24,625.49,110.24,620.555z"/>
			<path fill="#595757" d="M374.306,582.829h-36.584c-1.682,0-3.046,1.287-3.046,2.873c0,1.587,1.364,2.874,3.046,2.874h14.84
				v40.467c0,1.801,1.547,3.256,3.452,3.256c1.906,0,3.452-1.455,3.452-3.256v-40.467h14.84c1.683,0,3.046-1.287,3.046-2.874
				C377.352,584.116,375.987,582.829,374.306,582.829z"/>
			<path fill="#595757" d="M193.555,608.172c-1.29-1.229-2.824-2.217-4.562-2.938c-1.729-0.717-3.607-1.08-5.581-1.08h-16.985
				c-1.117,0-2.189-0.206-3.188-0.61c-0.997-0.405-1.878-0.971-2.621-1.678c-0.743-0.707-1.336-1.546-1.76-2.493
				c-0.426-0.948-0.643-1.971-0.643-3.032c0-1.063,0.216-2.083,0.643-3.033c0.424-0.946,1.016-1.785,1.761-2.493
				c0.743-0.708,1.624-1.271,2.62-1.677c1.001-0.405,2.074-0.611,3.188-0.611h27.57v-5.857h-27.57c-1.951,0-3.823,0.363-5.565,1.081
				c-1.746,0.721-3.286,1.708-4.578,2.938c-1.292,1.229-2.33,2.695-3.086,4.357c-0.754,1.654-1.137,3.438-1.137,5.296
				c0,1.882,0.382,3.676,1.136,5.33c0.756,1.661,1.794,3.128,3.086,4.357c1.29,1.228,2.829,2.209,4.575,2.918
				c1.742,0.707,3.615,1.065,5.568,1.065h16.985c1.139,0,2.219,0.206,3.208,0.611c0.983,0.406,1.853,0.971,2.584,1.68
				c0.729,0.706,1.313,1.537,1.737,2.469c0.427,0.942,0.644,1.958,0.644,3.02c0,1.063-0.216,2.081-0.643,3.033
				c-0.425,0.946-1.01,1.784-1.739,2.49c-0.731,0.709-1.601,1.273-2.583,1.679c-0.988,0.406-2.068,0.612-3.209,0.612h-31.351v5.858
				h31.351c1.976,0,3.855-0.358,5.585-1.065c1.734-0.709,3.268-1.691,4.558-2.919c1.29-1.229,2.322-2.688,3.067-4.338
				c0.742-1.646,1.119-3.445,1.119-5.352c0-1.856-0.376-3.634-1.119-5.279C195.876,610.856,194.844,609.397,193.555,608.172z"/>
			<path fill="#595757" d="M478.881,627.508l-19.119-42.904c-0.518-1.16-1.669-1.907-2.938-1.907c-1.271,0-2.422,0.747-2.939,1.907
				l-19.12,42.904c-0.723,1.623,0.007,3.525,1.63,4.249c1.623,0.723,3.524-0.009,4.249-1.629l3.222-7.228h25.919l3.22,7.228
				c0.534,1.196,1.71,1.908,2.942,1.908c0.437,0,0.882-0.091,1.307-0.279C478.875,631.033,479.604,629.131,478.881,627.508z
				 M446.544,616.884l10.278-23.065l10.277,23.065H446.544z"/>
		</g>
	</g>
</g>
</svg>
