<?xml version="1.0" encoding="utf-8"?>
<!-- Generator: Adobe Illustrator 16.0.0, SVG Export Plug-In . SVG Version: 6.00 Build 0)  -->
<!DOCTYPE svg PUBLIC "-//W3C//DTD SVG 1.1//EN" "http://www.w3.org/Graphics/SVG/1.1/DTD/svg11.dtd">
<svg version="1.1" xmlns="http://www.w3.org/2000/svg" xmlns:xlink="http://www.w3.org/1999/xlink" x="0px" y="0px" width="150px"
	 height="150px" viewBox="0 0 150 150" enable-background="new 0 0 150 150" xml:space="preserve">
<g id="圖層_3">
</g>
<g id="圖層_1">
	<g>
		<path fill="none" stroke="#666666" stroke-width="4" stroke-linecap="round" stroke-linejoin="round" stroke-miterlimit="10" d="
			M121.332,46.887c3.537,7.797-0.088,14.988-6.523,19.105c-5.508-1.277-13.766-2.258-28.814,2.787
			C106.271,62.375,99.74,46.488,121.332,46.887z"/>
		<path fill="none" stroke="#666666" stroke-width="4" stroke-linecap="round" stroke-linejoin="round" stroke-miterlimit="10" d="
			M110.402,26.672c0,0-70.48-34.641-73.801,38.525C85.958,70.326,80.93,35.949,110.402,26.672z"/>
		<path fill="none" stroke="#666666" stroke-width="4" stroke-linecap="round" stroke-linejoin="round" stroke-miterlimit="10" d="
			M125.53,130.131c21.976-11.961,20.095-82.031-39.536-61.352C114.814,84.363,95.989,116.258,125.53,130.131z"/>
		
			<path fill="#8BB395" stroke="#666666" stroke-width="4" stroke-linecap="round" stroke-linejoin="round" stroke-miterlimit="10" d="
			M88.949,92.504c-2.375,36.291-78.651,35.9-81.449-13.432C60.586,62.32,71.993,105.709,88.949,92.504z"/>
		<g>
			<path fill="#666666" d="M43.121,61.672c0,0,0.26-0.139,0.748-0.397c0.479-0.268,1.229-0.61,2.068-1.177
				c0.867-0.513,1.857-1.244,2.925-2.136c0.507-0.48,1.083-0.94,1.581-1.54c0.256-0.293,0.538-0.569,0.799-0.88
				c0.248-0.32,0.504-0.647,0.764-0.981c1-1.368,1.926-2.954,2.792-4.713c0.856-1.77,1.623-3.723,2.514-5.749
				c0.888-2.023,1.817-4.173,3.099-6.227c1.263-2.058,2.834-4.035,4.7-5.707c1.872-1.672,4.04-2.967,6.246-3.959
				c2.193-1.061,4.498-1.629,6.692-2.185c1.111-0.199,2.199-0.435,3.271-0.592c1.072-0.118,2.123-0.234,3.145-0.348
				c2.045-0.133,3.976-0.25,5.754-0.199c0.889,0.011,1.74-0.004,2.548,0.029c0.808,0.05,1.572,0.098,2.292,0.143
				c0.717,0.047,1.389,0.092,2.01,0.133c0.618,0.07,1.186,0.135,1.699,0.193c2.051,0.24,3.215,0.406,3.215,0.406
				s-1.18,0.087-3.23,0.189c-0.514,0.024-1.08,0.051-1.697,0.08c-0.616,0.045-1.282,0.094-1.994,0.146
				c-1.422,0.087-3.021,0.213-4.757,0.399c-1.74,0.139-3.601,0.448-5.566,0.702c-0.972,0.183-1.97,0.369-2.99,0.56
				c-1.003,0.236-2.028,0.478-3.071,0.724c-1.012,0.325-2.063,0.598-3.078,0.981c-1.008,0.401-2.043,0.769-3.02,1.263
				c-1.983,0.927-3.87,2.102-5.482,3.58c-1.648,1.435-3.055,3.141-4.234,4.997c-1.174,1.859-2.207,3.821-3.156,5.79
				c-0.943,1.971-1.903,3.904-2.938,5.697c-1.031,1.798-2.211,3.407-3.441,4.758c-1.218,1.37-2.559,2.402-3.777,3.22
				c-1.233,0.801-2.377,1.371-3.354,1.759c-0.947,0.45-1.741,0.609-2.265,0.791C43.402,61.586,43.121,61.672,43.121,61.672z"/>
		</g>
		<path fill="none" stroke="#666666" stroke-width="2" stroke-linecap="round" stroke-linejoin="round" stroke-miterlimit="10" d="
			M59.24,21.719c0.66,3.469,9.547,5.596,19.097,5.596"/>
		<path fill="none" stroke="#666666" stroke-width="2" stroke-linecap="round" stroke-linejoin="round" stroke-miterlimit="10" d="
			M85.549,26.08c-3.984,2.887-6.283,14.998-2.514,22.979"/>
		<path fill="none" stroke="#666666" stroke-width="2" stroke-linecap="round" stroke-linejoin="round" stroke-miterlimit="10" d="
			M70.986,29.973c-4.359,6.377-3.553,26.137,2.17,28.246"/>
		<path fill="none" stroke="#666666" stroke-width="2" stroke-linecap="round" stroke-linejoin="round" stroke-miterlimit="10" d="
			M58.977,43.641c-2.316,5.238-2.387,17.76,3.334,19.867"/>
		<path fill="none" stroke="#666666" stroke-width="2" stroke-linecap="round" stroke-linejoin="round" stroke-miterlimit="10" d="
			M44.654,34.461c3.356,2.238,12.845,4.131,18.443,2.037"/>
		<path fill="none" stroke="#666666" stroke-width="2" stroke-linecap="round" stroke-linejoin="round" stroke-miterlimit="10" d="
			M38.572,49.83c3.572,0.537,11.641,0.777,19.896-4.811"/>
		<path fill="none" stroke="#666666" stroke-width="2" stroke-linecap="round" stroke-linejoin="round" stroke-miterlimit="10" d="
			M48.047,117.869c3.574,0.535,10.247-4.244,14.793-13.188"/>
		<path fill="none" stroke="#666666" stroke-width="2" stroke-linecap="round" stroke-linejoin="round" stroke-miterlimit="10" d="
			M111.322,116.584c5.279,1.941,13.193-7.121,15.293-18.277"/>
		<path fill="none" stroke="#666666" stroke-width="2" stroke-linecap="round" stroke-linejoin="round" stroke-miterlimit="10" d="
			M106.629,105.002c3.311,0.023,12.793-8.277,11.443-21.256"/>
		<path fill="none" stroke="#666666" stroke-width="2" stroke-linecap="round" stroke-linejoin="round" stroke-miterlimit="10" d="
			M103.331,91.209c4.165-0.563,6.577-8.006,5.222-14.936"/>
		<path fill="none" stroke="#666666" stroke-width="2" stroke-linecap="round" stroke-linejoin="round" stroke-miterlimit="10" d="
			M130.759,76.273c-7.639-1.93-12.912,0.354-17.954,2.809"/>
		<path fill="none" stroke="#666666" stroke-width="2" stroke-linecap="round" stroke-linejoin="round" stroke-miterlimit="10" d="
			M137.957,94.375c-3.75-4.092-11.342-4.596-13.912-2.307"/>
		<path fill="none" stroke="#666666" stroke-width="2" stroke-linecap="round" stroke-linejoin="round" stroke-miterlimit="10" d="
			M136.807,113.375c-0.424-4.607-6.66-7.598-8.266-6.414"/>
		<path fill="none" stroke="#666666" stroke-width="2" stroke-linecap="round" stroke-linejoin="round" stroke-miterlimit="10" d="
			M27.764,111.711c9.177-0.518,18.197-9.428,18.713-11.998"/>
		<path fill="none" stroke="#666666" stroke-width="2" stroke-linecap="round" stroke-linejoin="round" stroke-miterlimit="10" d="
			M12.113,95.947c5.193-0.65,11.131-3.814,22.268-2.9"/>
		<path fill="none" stroke="#666666" stroke-width="2" stroke-linecap="round" stroke-linejoin="round" stroke-miterlimit="10" d="
			M29.373,75.186c5.365,1.988,7.229,11.455,8.926,19.725"/>
		<path fill="none" stroke="#666666" stroke-width="2" stroke-linecap="round" stroke-linejoin="round" stroke-miterlimit="10" d="
			M49.225,78.318c4.822,4.748,5.395,16.592,3.082,24.137"/>
		<path fill="none" stroke="#666666" stroke-width="2" stroke-linecap="round" stroke-linejoin="round" stroke-miterlimit="10" d="
			M66.592,87.557c3.66,5.104,5.047,12.883,2.57,16.479"/>
		<g>
			<path fill="#666666" d="M127.777,64.639c0,0,0.027-0.081,0.078-0.232c0.059-0.137,0.129-0.369,0.25-0.603
				c0.081-0.248,0.318-0.528,0.688-0.821c0.391-0.326,0.795-0.528,1.281-0.736c0.502-0.217,0.998-0.296,1.577-0.394
				c0.511-0.044,1.12-0.078,1.626-0.026c0.549,0.033,1.05,0.114,1.546,0.214c0.48,0.098,0.947,0.233,1.364,0.357
				c0.205,0.067,0.41,0.132,0.611,0.212c0.186,0.057,0.361,0.125,0.541,0.197c0.357,0.149,0.646,0.269,0.937,0.412
				c0.267,0.112,0.542,0.277,0.781,0.37c0.272,0.157,0.515,0.211,0.81,0.319c0.299,0.12,0.578,0.104,0.891,0.168
				c0.314,0.063,0.597,0.034,0.852,0.034c0.244-0.017,0.486,0,0.637-0.01c0.166,0.001,0.254,0.001,0.254,0.001
				s0.006,0.086-0.005,0.238c-0.017,0.146-0.022,0.39-0.093,0.663c-0.072,0.272-0.123,0.661-0.346,0.995
				c-0.214,0.336-0.453,0.787-0.857,1.122c-0.4,0.338-0.89,0.729-1.465,0.936c-0.59,0.267-1.199,0.396-1.85,0.471
				c-0.336,0.06-0.615,0.025-0.936,0.029c-0.314,0-0.637-0.014-0.912-0.063c-0.287-0.044-0.582-0.09-0.867-0.154
				c-0.266-0.063-0.526-0.143-0.789-0.219c-0.518-0.161-0.971-0.356-1.404-0.556c-0.416-0.205-0.814-0.422-1.148-0.633
				c-0.365-0.232-0.634-0.408-0.941-0.644c-0.253-0.169-0.546-0.427-0.776-0.58c-0.255-0.185-0.489-0.354-0.696-0.504
				c-0.207-0.145-0.486-0.333-0.77-0.342c-0.259-0.038-0.488-0.117-0.633-0.149C127.859,64.664,127.777,64.639,127.777,64.639z"/>
		</g>
		<g>
			<path fill="#666666" d="M16.127,41.078c0,0,0.031,0.08,0.092,0.229c0.043,0.144,0.141,0.367,0.199,0.625
				c0.082,0.251,0.13,0.609,0.254,0.911c0.099,0.283,0.211,0.602,0.333,0.949c0.144,0.342,0.217,0.675,0.369,1.015
				c0.116,0.332,0.255,0.673,0.376,1.023c0.133,0.367,0.244,0.727,0.365,1.183c0.053,0.21,0.108,0.446,0.154,0.711
				c0.051,0.25,0.086,0.506,0.117,0.808c0.062,0.56,0.068,1.216-0.002,1.856c-0.07,0.656-0.244,1.295-0.477,1.888
				c-0.239,0.577-0.545,1.107-0.876,1.541c-0.358,0.416-0.684,0.817-1.064,1.086c-0.374,0.281-0.728,0.515-1.055,0.697
				c-0.342,0.167-0.673,0.278-0.935,0.37c-0.253,0.099-0.493,0.139-0.637,0.18c-0.151,0.034-0.24,0.045-0.24,0.045
				s-0.014-0.086-0.039-0.248c-0.012-0.152-0.06-0.393-0.068-0.652c-0.016-0.265-0.049-0.588-0.049-0.92
				c-0.031-0.344-0.055-0.706-0.064-1.073c0.014-0.365-0.068-0.74-0.069-1.097c-0.024-0.357-0.08-0.697-0.111-1.021
				c-0.041-0.164-0.051-0.319-0.063-0.475c-0.033-0.16-0.07-0.322-0.083-0.479c-0.05-0.333-0.086-0.671-0.136-1.096l-0.053-0.667
				c-0.018-0.225-0.024-0.477-0.03-0.752c-0.005-0.511,0.022-1.108,0.113-1.67c0.083-0.579,0.237-1.135,0.446-1.652
				c0.179-0.514,0.485-0.962,0.732-1.355c0.284-0.397,0.606-0.737,0.885-1.003c0.272-0.284,0.578-0.394,0.807-0.55
				c0.224-0.144,0.45-0.234,0.582-0.307C16.049,41.113,16.127,41.078,16.127,41.078z"/>
		</g>
		<g>
			<path fill="#666666" d="M100.764,121.514c0,0-0.033,0.078-0.094,0.226c-0.064,0.137-0.145,0.386-0.274,0.607
				c-0.063,0.118-0.132,0.249-0.208,0.393c-0.043,0.158-0.075,0.281-0.101,0.424c-0.048,0.278-0.047,0.543-0.081,0.855
				c-0.033,0.269-0.032,0.571-0.039,0.843c-0.014,0.268-0.014,0.565-0.057,0.852c-0.018,0.158-0.047,0.308-0.078,0.453
				c-0.037,0.158-0.077,0.338-0.129,0.499c-0.103,0.322-0.24,0.709-0.418,1.077c-0.182,0.385-0.399,0.77-0.671,1.175
				c-0.25,0.381-0.603,0.8-0.945,1.151c-0.386,0.377-0.765,0.697-1.22,0.984c-0.229,0.135-0.432,0.269-0.658,0.375
				c-0.242,0.1-0.466,0.197-0.691,0.27c-0.43,0.163-0.906,0.199-1.293,0.219c-0.369,0.048-0.734-0.023-1.018-0.089
				c-0.274-0.046-0.512-0.161-0.653-0.212c-0.144-0.062-0.22-0.094-0.22-0.094s0.018-0.086,0.05-0.246
				c0.035-0.15,0.056-0.412,0.11-0.645c0.053-0.239,0.08-0.547,0.109-0.847c0.023-0.311,0.038-0.613,0.033-0.944
				c0.002-0.291,0.005-0.607,0.008-0.941c0.018-0.286,0.02-0.654,0.068-0.959c0.047-0.356,0.11-0.666,0.225-1.052
				c0.105-0.357,0.26-0.751,0.443-1.148c0.203-0.407,0.422-0.807,0.726-1.231c0.151-0.213,0.301-0.409,0.472-0.612
				c0.188-0.208,0.377-0.408,0.572-0.595c0.182-0.182,0.432-0.377,0.658-0.536c0.237-0.161,0.434-0.327,0.71-0.454
				c0.261-0.127,0.502-0.253,0.749-0.345c0.253-0.089,0.521-0.155,0.768-0.202c0.261-0.038,0.459-0.091,0.723-0.088
				c0.26,0.001,0.494,0.015,0.704,0.035c0.21,0.027,0.396,0.032,0.56,0.098c0.143,0.078,0.273,0.148,0.391,0.213
				c0.232,0.113,0.437,0.277,0.566,0.355C100.693,121.467,100.764,121.514,100.764,121.514z"/>
		</g>
		<g>
			<path fill="#666666" d="M84.65,97.182c0,0-0.244,0.207-0.704,0.596c-0.462,0.384-1.124,0.97-1.999,1.672
				c-0.463,0.326-0.975,0.687-1.533,1.079c-0.559,0.396-1.168,0.83-1.863,1.203c-0.691,0.384-1.41,0.835-2.209,1.235
				c-0.811,0.372-1.666,0.77-2.577,1.146c-0.936,0.305-1.896,0.696-2.931,0.966c-1.041,0.239-2.115,0.546-3.254,0.657
				c-2.26,0.381-4.703,0.369-7.188,0.107c-2.491-0.27-5.007-0.895-7.465-1.745c-2.468-0.842-4.838-1.978-7.16-3.164
				c-2.309-1.221-4.509-2.586-6.656-3.937c-2.155-1.342-4.178-2.777-6.17-4.104c-1.988-1.33-3.887-2.629-5.714-3.815
				c-1.841-1.153-3.577-2.254-5.237-3.156c-0.821-0.473-1.631-0.873-2.402-1.254c-0.763-0.41-1.516-0.719-2.219-1.031
				c-0.697-0.333-1.383-0.543-2.004-0.79c-0.619-0.254-1.205-0.432-1.738-0.582c-1.061-0.339-1.914-0.533-2.502-0.654
				c-0.587-0.131-0.9-0.201-0.9-0.201s0.32,0.014,0.921,0.039c0.603,0.025,1.495,0.037,2.61,0.233
				c0.563,0.073,1.186,0.166,1.849,0.329c0.667,0.148,1.398,0.298,2.149,0.544c1.521,0.439,3.221,1.021,4.995,1.821
				c3.591,1.525,7.535,3.778,11.624,6.297c2.034,1.255,4.137,2.551,6.272,3.868c2.13,1.3,4.298,2.598,6.524,3.742
				c2.21,1.167,4.45,2.278,6.739,3.092c2.287,0.803,4.564,1.537,6.837,1.857c2.264,0.303,4.488,0.501,6.59,0.285
				c2.107-0.134,4.073-0.567,5.881-1.03c0.893-0.27,1.732-0.586,2.551-0.843c0.807-0.289,1.544-0.639,2.256-0.928
				c0.723-0.276,1.343-0.632,1.941-0.927c0.598-0.301,1.146-0.578,1.643-0.828C83.543,97.829,84.65,97.182,84.65,97.182z"/>
		</g>
		<g>
			<path fill="#666666" d="M125.53,130.131c0,0,0.252-1.314,0.692-3.615c0.169-1.156,0.45-2.532,0.632-4.141
				c0.226-1.6,0.382-3.413,0.517-5.382c0.096-1.972,0.146-4.105,0.025-6.346c-0.076-2.244-0.414-4.582-0.839-6.967
				c-0.438-2.389-1.204-4.773-2.095-7.134c-0.898-2.363-2.105-4.641-3.529-6.768c-1.397-2.143-3.011-4.151-4.801-5.941
				c-1.812-1.767-3.711-3.399-5.692-4.809c-1.993-1.39-4.019-2.604-6.001-3.664c-2.006-1.006-3.938-1.918-5.777-2.64
				c-0.918-0.366-1.801-0.712-2.657-0.999c-0.851-0.304-1.656-0.606-2.432-0.832c-1.538-0.494-2.897-0.883-4.022-1.191
				c-1.122-0.317-2.018-0.522-2.623-0.686c-0.609-0.155-0.934-0.238-0.934-0.238s0.334,0.027,0.959,0.078
				c0.623,0.066,1.552,0.089,2.713,0.26c1.166,0.15,2.584,0.333,4.193,0.666c1.611,0.311,3.428,0.719,5.369,1.315
				c1.953,0.56,4.031,1.316,6.182,2.248c2.133,0.966,4.355,2.083,6.512,3.496c2.143,1.425,4.293,3.029,6.244,4.934
				c1.951,1.901,3.732,4.047,5.273,6.356c1.514,2.326,2.788,4.814,3.725,7.377c0.953,2.555,1.603,5.167,1.988,7.717
				c0.382,2.551,0.545,5.04,0.475,7.385c-0.006,2.347-0.263,4.548-0.55,6.559c-0.304,2.01-0.683,3.83-1.101,5.42
				c-0.356,1.601-0.854,2.958-1.182,4.083c-0.362,1.114-0.718,1.965-0.928,2.557C125.647,129.817,125.53,130.131,125.53,130.131z"/>
		</g>
		<g>
			<path fill="#666666" d="M117.438,50.754c0,0,0.006,0.373-0.016,1.02c0.012,0.322-0.09,0.714-0.19,1.176
				c-0.082,0.479-0.269,0.963-0.484,1.496c-0.185,0.554-0.516,1.071-0.828,1.654c-0.354,0.545-0.723,1.141-1.183,1.682
				c-0.459,0.543-0.924,1.119-1.47,1.624c-0.515,0.542-1.108,1.007-1.681,1.498c-0.604,0.448-1.197,0.915-1.828,1.302
				c-0.615,0.409-1.254,0.759-1.879,1.083c-0.607,0.352-1.25,0.594-1.836,0.854c-0.598,0.241-1.176,0.438-1.713,0.6
				c-0.546,0.147-1.036,0.292-1.492,0.361c-0.452,0.078-0.841,0.146-1.17,0.168c-0.658,0.037-1.025,0.037-1.025,0.037
				s0.342-0.167,0.924-0.422c0.291-0.124,0.629-0.326,1.025-0.508c0.395-0.186,0.817-0.458,1.293-0.695
				c0.461-0.271,0.961-0.565,1.489-0.876c0.513-0.337,1.063-0.664,1.614-1.038c0.563-0.353,1.108-0.768,1.676-1.167
				c0.569-0.398,1.119-0.839,1.678-1.265c0.539-0.45,1.1-0.878,1.602-1.348c0.523-0.451,1.016-0.912,1.479-1.376
				c0.458-0.467,0.882-0.934,1.286-1.38c0.344-0.48,0.768-0.89,1.033-1.336c0.288-0.437,0.592-0.828,0.771-1.202
				c0.191-0.375,0.424-0.689,0.521-1.004C117.279,51.093,117.438,50.754,117.438,50.754z"/>
		</g>
		
			<line fill="none" stroke="#666666" stroke-width="4" stroke-linecap="round" stroke-linejoin="round" stroke-miterlimit="10" x1="121" y1="21" x2="114" y2="21"/>
		
			<line fill="none" stroke="#666666" stroke-width="4" stroke-linecap="round" stroke-linejoin="round" stroke-miterlimit="10" x1="86.227" y1="68.78" x2="79.686" y2="68.084"/>
		
			<line fill="none" stroke="#666666" stroke-width="4" stroke-linecap="round" stroke-linejoin="round" stroke-miterlimit="10" x1="89.189" y1="92.522" x2="92.695" y2="88.599"/>
	</g>
</g>
<g id="圖層_2">
</g>
</svg>
