<?xml version="1.0" encoding="utf-8"?>
<!-- Generator: Adobe Illustrator 16.0.0, SVG Export Plug-In . SVG Version: 6.00 Build 0)  -->
<!DOCTYPE svg PUBLIC "-//W3C//DTD SVG 1.1//EN" "http://www.w3.org/Graphics/SVG/1.1/DTD/svg11.dtd">
<svg version="1.1" xmlns="http://www.w3.org/2000/svg" xmlns:xlink="http://www.w3.org/1999/xlink" x="0px" y="0px" width="150px"
	 height="150px" viewBox="0 0 150 150" enable-background="new 0 0 150 150" xml:space="preserve">
<g id="圖層_3">
</g>
<g id="圖層_1">
	<g>
		<polygon fill="#8BB395" points="98.451,49.526 70.863,100.676 126.371,100.676 		"/>
		<path fill="none" stroke="#666666" stroke-width="4" stroke-linecap="round" stroke-linejoin="round" stroke-miterlimit="10" d="
			M82.715,71.906l-21.672-38.86l-38.959,70.337h29.197C59.959,82.563,74.797,74.696,82.715,71.906z"/>
		<path fill="none" stroke="#666666" stroke-width="4" stroke-linecap="round" stroke-linejoin="round" stroke-miterlimit="10" d="
			M87.031,70.707c0,0-23.545,3.818-35.75,32.676H14.506c-13.111,0-13.227,18.036,0,18.036h28.713c0,0,0.566,12.623,12.998,12.623
			h53.92c14.238,0,13.336-15.331,13.336-15.331h11.303c14.471,0,14.471-18.035,0-18.035H70.863L87.031,70.707"/>
		<path fill="none" stroke="#666666" stroke-width="2" stroke-linecap="round" stroke-linejoin="round" stroke-miterlimit="10" d="
			M32.592,115.105H15.049c-2.441,0-3.844-0.986-3.844-2.706c0-1.717,1.402-2.705,3.844-2.705h35.633"/>
		<path fill="none" stroke="#666666" stroke-width="2" stroke-linecap="round" stroke-linejoin="round" stroke-miterlimit="10" d="
			M103.123,107.891h32.197c3.105,0,3.732,1.17,3.732,2.256s-0.627,2.253-3.732,2.253h-5.971"/>
		
			<polygon fill="none" stroke="#666666" stroke-width="4" stroke-linecap="round" stroke-linejoin="round" stroke-miterlimit="10" points="
			98.451,49.526 70.863,100.676 126.371,100.676 		"/>
		
			<line fill="none" stroke="#666666" stroke-width="4" stroke-linecap="round" stroke-linejoin="round" stroke-miterlimit="10" x1="56.986" y1="55.501" x2="48.77" y2="71.734"/>
		
			<line fill="none" stroke="#666666" stroke-width="4" stroke-linecap="round" stroke-linejoin="round" stroke-miterlimit="10" x1="92.256" y1="78.943" x2="84.039" y2="95.178"/>
		
			<line fill="none" stroke="#666666" stroke-width="4" stroke-linecap="round" stroke-linejoin="round" stroke-miterlimit="10" x1="45.717" y1="77.582" x2="44.652" y2="79.685"/>
		<path fill="none" stroke="#666666" stroke-width="2" stroke-linecap="round" stroke-linejoin="round" stroke-miterlimit="10" d="
			M73.287,127.73h32.551c9.42,0,8.59-7.741,8.59-7.741"/>
		<path fill="none" stroke="#666666" stroke-width="4" stroke-linecap="round" stroke-linejoin="round" stroke-miterlimit="10" d="
			M108.553,45.669h24.869c6.365,0,5.688-7.456,0.463-7.456l-5.967,0.015c0.604-7.797-14.395-8.715-13.637-0.149
			C104.18,32.145,100.039,45.669,108.553,45.669z"/>
		<path fill="none" stroke="#666666" stroke-width="4" stroke-linecap="round" stroke-linejoin="round" stroke-miterlimit="10" d="
			M24.453,29.438h24.869c7.799,0,4.416-13.076-5.502-7.441C26.717,4.938,15.939,29.438,24.453,29.438z"/>
	</g>
</g>
<g id="圖層_2">
</g>
</svg>
