<?xml version="1.0" encoding="utf-8"?>
<!-- Generator: Adobe Illustrator 16.0.0, SVG Export Plug-In . SVG Version: 6.00 Build 0)  -->
<!DOCTYPE svg PUBLIC "-//W3C//DTD SVG 1.1//EN" "http://www.w3.org/Graphics/SVG/1.1/DTD/svg11.dtd">
<svg version="1.1" xmlns="http://www.w3.org/2000/svg" xmlns:xlink="http://www.w3.org/1999/xlink" x="0px" y="0px" width="150px"
	 height="150px" viewBox="0 0 150 150" enable-background="new 0 0 150 150" xml:space="preserve">
<g id="圖層_3">
</g>
<g id="圖層_1">
	<g>
		<polygon fill="#8BB395" points="70.525,96.412 45.445,131.831 70.525,131.784 95.612,131.831 		"/>
		
			<polygon fill="none" stroke="#666666" stroke-width="4" stroke-linecap="round" stroke-linejoin="round" stroke-miterlimit="10" points="
			70.945,96.412 45.865,131.831 70.945,131.784 96.032,131.831 		"/>
		<path fill="none" stroke="#666666" stroke-width="4" stroke-linecap="round" stroke-linejoin="round" stroke-miterlimit="10" d="
			M142.568,119.901l-36.791-47.744L90.902,91.454L80.234,77.286c-4.508,5.369-8.996,7.702-8.996,7.702s-14.244-7.714-17.797-25.992
			L7.568,119.901l47.039-0.106L70.996,96.65l16.433,23.2l3.349-0.009l21.543,0.06l-0.047-0.075L142.568,119.901z"/>
		<g>
			<path fill="none" stroke="#666666" stroke-width="4" stroke-linecap="round" stroke-linejoin="round" stroke-miterlimit="10" d="
				M89.302,50.39c0.191,24.863-18.11,34.36-18.11,34.36s-18.429-9.969-18.597-34.113C52.44,29.777,70.723,18.169,70.723,18.169
				S89.165,29.004,89.302,50.39z"/>
			
				<line fill="none" stroke="#666666" stroke-width="2" stroke-linecap="round" stroke-linejoin="round" stroke-miterlimit="10" x1="70.723" y1="18.169" x2="71.191" y2="84.75"/>
			<g>
				
					<line fill="none" stroke="#666666" stroke-width="2" stroke-linecap="round" stroke-linejoin="round" stroke-miterlimit="10" x1="70.888" y1="42.068" x2="82.071" y2="31.212"/>
				
					<line fill="none" stroke="#666666" stroke-width="2" stroke-linecap="round" stroke-linejoin="round" stroke-miterlimit="10" x1="71.169" y1="61.776" x2="88.872" y2="48.362"/>
			</g>
			<g>
				
					<line fill="none" stroke="#666666" stroke-width="2" stroke-linecap="round" stroke-linejoin="round" stroke-miterlimit="10" x1="53.823" y1="60.738" x2="71.091" y2="70.955"/>
				
					<line fill="none" stroke="#666666" stroke-width="2" stroke-linecap="round" stroke-linejoin="round" stroke-miterlimit="10" x1="53.206" y1="42.438" x2="70.692" y2="52.762"/>
			</g>
		</g>
		
			<line fill="none" stroke="#666666" stroke-width="4" stroke-linecap="round" stroke-linejoin="round" stroke-miterlimit="10" x1="49.6" y1="80.895" x2="38.263" y2="96.461"/>
		
			<line fill="none" stroke="#666666" stroke-width="4" stroke-linecap="round" stroke-linejoin="round" stroke-miterlimit="10" x1="67.969" y1="113.126" x2="61.555" y2="122.407"/>
		
			<line fill="none" stroke="#666666" stroke-width="4" stroke-linecap="round" stroke-linejoin="round" stroke-miterlimit="10" x1="34.079" y1="102.058" x2="32.612" y2="104.072"/>
	</g>
</g>
<g id="圖層_2">
</g>
</svg>
