<?xml version="1.0" encoding="utf-8"?>
<!-- Generator: Adobe Illustrator 16.0.0, SVG Export Plug-In . SVG Version: 6.00 Build 0)  -->
<!DOCTYPE svg PUBLIC "-//W3C//DTD SVG 1.1//EN" "http://www.w3.org/Graphics/SVG/1.1/DTD/svg11.dtd">
<svg version="1.1" xmlns="http://www.w3.org/2000/svg" xmlns:xlink="http://www.w3.org/1999/xlink" x="0px" y="0px" width="150px"
	 height="150px" viewBox="0 0 150 150" enable-background="new 0 0 150 150" xml:space="preserve">
<g id="圖層_3">
</g>
<g id="圖層_1">
	<g>
		<path fill="#8BB395" d="M66.304,53.043c-2.078,0.538-4.256,0.562-5.734,0.125c-6.814-2.018-9.503-4.259-9.503-11.366
			c0-0.915,0.098-1.812,0.279-2.676c-3.654,0.286-8.288-2.604-8.653-7.416c-0.207-2.707,0.974-5.196,2.58-7.128
			c-16.62-1.456-29.879,1.22-31.392,1.43c-0.007,0.073-0.024,0.179-0.044,0.301l49.546,48.556L66.304,53.043z"/>
		<path fill="none" stroke="#808080" stroke-width="4" stroke-linecap="round" stroke-linejoin="round" stroke-miterlimit="10" d="
			M129.583,39.294c11.211,11.213,11.211,29.396,0,40.607c-11.215,11.22-29.398,11.22-40.609,0
			c-11.217-11.211-11.217-29.394,0-40.607C100.185,28.078,118.368,28.078,129.583,39.294z"/>
		
			<line fill="none" stroke="#666666" stroke-width="3" stroke-linecap="round" stroke-linejoin="round" stroke-miterlimit="10" x1="13.881" y1="26.355" x2="115.56" y2="125.998"/>
		
			<line fill="none" stroke="#666666" stroke-width="3" stroke-linecap="round" stroke-linejoin="round" stroke-miterlimit="10" x1="48.729" y1="60.5" x2="12.729" y2="60.5"/>
		
			<line fill="none" stroke="#666666" stroke-width="3" stroke-linecap="round" stroke-linejoin="round" stroke-miterlimit="10" x1="71.403" y1="83.271" x2="20.955" y2="89.148"/>
		
			<line fill="none" stroke="#666666" stroke-width="3" stroke-linecap="round" stroke-linejoin="round" stroke-miterlimit="10" x1="95.231" y1="106.081" x2="42.831" y2="114.804"/>
		
			<line fill="none" stroke="#666666" stroke-width="3" stroke-linecap="round" stroke-linejoin="round" stroke-miterlimit="10" x1="85.717" y1="96.757" x2="88.766" y2="79.76"/>
		
			<line fill="none" stroke="#666666" stroke-width="3" stroke-linecap="round" stroke-linejoin="round" stroke-miterlimit="10" x1="63.392" y1="74.829" x2="66.306" y2="53.034"/>
		<path fill="none" stroke="#666666" stroke-width="4" stroke-linecap="round" stroke-linejoin="round" stroke-miterlimit="10" d="
			M129.583,39.294c11.211,11.213,11.211,29.396,0,40.607c-11.215,11.22-29.398,11.22-40.609,0
			c-11.217-11.211-11.217-29.394,0-40.607C100.185,28.078,118.368,28.078,129.583,39.294z"/>
		
			<line fill="none" stroke="#666666" stroke-width="3" stroke-linecap="round" stroke-linejoin="round" stroke-miterlimit="10" x1="89.479" y1="40.803" x2="128.771" y2="80.093"/>
		
			<line fill="none" stroke="#666666" stroke-width="4" stroke-linecap="round" stroke-linejoin="round" stroke-miterlimit="10" x1="88.097" y1="29.746" x2="86.894" y2="21"/>
		
			<line fill="none" stroke="#666666" stroke-width="4" stroke-linecap="round" stroke-linejoin="round" stroke-miterlimit="10" x1="77.927" y1="39.916" x2="69.79" y2="37.116"/>
		<g>
			<path fill="#666666" d="M110.485,55.441c-1.794,0-3.486,0.695-4.753,1.966c-2.624,2.623-2.624,6.886,0,9.503
				c1.267,1.271,2.954,1.973,4.75,1.973s3.481-0.702,4.755-1.974c2.621-2.617,2.621-6.88-0.002-9.502
				C113.965,56.137,112.281,55.441,110.485,55.441z"/>
			<path fill="#666666" d="M115.198,78.243c-1.685-1.683-3.916-2.61-6.297-2.61c-2.379,0-4.613,0.928-6.297,2.611
				c-2.334,2.337-3.091,5.656-2.285,8.638c5.538,1.813,11.512,1.904,17.092,0.259C118.339,84.098,117.603,80.645,115.198,78.243z"/>
			<path fill="#666666" d="M105.325,41.719c0-1.169-0.457-2.271-1.28-3.092c-0.825-0.829-1.923-1.287-3.096-1.287
				c-1.166,0-2.265,0.458-3.089,1.285c-0.827,0.822-1.281,1.925-1.281,3.093c0,1.169,0.454,2.267,1.281,3.094
				c0.824,0.821,1.922,1.28,3.087,1.28c1.173,0,2.27-0.459,3.098-1.281C104.868,43.983,105.325,42.887,105.325,41.719z"/>
			<path fill="#666666" d="M93.977,70.216c1.568-1.564,2.433-3.652,2.433-5.871s-0.864-4.3-2.432-5.867
				c-1.566-1.571-3.654-2.435-5.869-2.435c-2.219,0-4.303,0.863-5.873,2.433c-0.691,0.696-1.24,1.493-1.645,2.354
				c0.142,3.381,0.887,6.734,2.217,9.903c1.486,1.239,3.344,1.914,5.301,1.914C90.323,72.647,92.411,71.784,93.977,70.216z"/>
			<path fill="#666666" d="M133.423,55.447c-1.682,0-3.263,0.653-4.453,1.842c-1.193,1.191-1.848,2.773-1.848,4.458
				c0,1.686,0.654,3.267,1.848,4.456c1.187,1.189,2.771,1.844,4.455,1.844c1.314,0,2.566-0.405,3.62-1.149
				c0.82-3.132,1.105-6.379,0.851-9.589c-0.006-0.005-0.008-0.011-0.016-0.016C136.691,56.103,135.107,55.447,133.423,55.447z"/>
			<path fill="#666666" d="M112.912,35.134c-3.332,3.333-3.332,8.758,0,12.09c1.613,1.618,3.761,2.505,6.046,2.505
				c2.283,0,4.434-0.887,6.047-2.507c3.004-3.006,3.292-7.706,0.875-11.045c-2.106-1.503-4.367-2.682-6.721-3.542
				c-0.068-0.002-0.133-0.01-0.199-0.01C116.675,32.625,114.527,33.518,112.912,35.134z"/>
		</g>
		<path fill="none" stroke="#666666" stroke-width="4" stroke-linecap="round" stroke-linejoin="round" stroke-miterlimit="10" d="
			M88.974,79.901c-7.33-7.324-9.867-17.629-7.615-27.021c-0.814,0.183-1.682,0.287-2.617,0.287c-1.8,0-5.994-2.309-7.55-2.978
			c-2.359,2.97-7.782,3.817-10.622,2.978c-6.814-2.018-9.503-4.259-9.503-11.366c0-0.915,0.098-1.812,0.279-2.676
			c-3.654,0.286-8.288-2.604-8.653-7.416c-0.207-2.707,0.974-5.196,2.58-7.128c-16.62-1.456-29.879,1.22-31.392,1.43
			c-0.413,2.959-10.298,50.842,19.876,81.013c33.009,33.009,78.688,20.924,81.488,20.353c0.346-1.697,4.918-19.131,1.129-39.954
			C106.881,89.838,96.401,87.331,88.974,79.901z"/>
		<path fill="none" stroke="#666666" stroke-width="4" stroke-linecap="round" stroke-linejoin="round" stroke-miterlimit="10" d="
			M88.974,39.294c3.207-3.207,6.986-5.496,11.009-6.87c-4.983-4.393-12.579-4.221-17.343,0.537
			c-4.76,4.767-4.93,12.366-0.531,17.344C83.478,46.284,85.765,42.502,88.974,39.294z"/>
	</g>
</g>
<g id="圖層_2">
</g>
</svg>
