<?xml version="1.0" encoding="utf-8"?>
<!-- Generator: Adobe Illustrator 16.0.0, SVG Export Plug-In . SVG Version: 6.00 Build 0)  -->
<!DOCTYPE svg PUBLIC "-//W3C//DTD SVG 1.1//EN" "http://www.w3.org/Graphics/SVG/1.1/DTD/svg11.dtd">
<svg version="1.1" xmlns="http://www.w3.org/2000/svg" xmlns:xlink="http://www.w3.org/1999/xlink" x="0px" y="0px" width="150px"
	 height="150px" viewBox="0 0 150 150" enable-background="new 0 0 150 150" xml:space="preserve">
<g id="圖層_3">
</g>
<g id="圖層_1">
	<g>
		
			<path fill="#8BB395" stroke="#FFFFFF" stroke-width="4" stroke-linecap="round" stroke-linejoin="round" stroke-miterlimit="10" d="
			M67.749,73.938c0.461-7.369,3.223-18.547,13.922-28.32c3.053-2.785,6.289-4.805,9.539-6.271
			C89.616,20.93,74.931,10.879,74.931,10.879S56.515,21.664,55.554,42.727c-0.543,11.922,3.168,20.398,7.283,26.197L67.749,73.938z"
			/>
		<path fill="none" stroke="#666666" stroke-width="4" stroke-linecap="round" stroke-linejoin="round" stroke-miterlimit="10" d="
			M38.645,88.67c-5.52,1.508-9.406,9.344-2.029,14.684l20.701,15.557"/>
		<path fill="none" stroke="#666666" stroke-width="4" stroke-linecap="round" stroke-linejoin="round" stroke-miterlimit="10" d="
			M41.314,71.852c-6.861-1.557-14.133,8.447-5.326,14.822l21.85,16.518"/>
		<path fill="none" stroke="#666666" stroke-width="4" stroke-linecap="round" stroke-linejoin="round" stroke-miterlimit="10" d="
			M55.432,48.518H42.609c-14.344,0-13.627,19.119-0.244,19.119"/>
		<path fill="none" stroke="#666666" stroke-width="4" stroke-linecap="round" stroke-linejoin="round" stroke-miterlimit="10" d="
			M114.678,127.242V82.426c0-8.043-1.547-13.768-3.289-17.422"/>
		<g>
			
				<line fill="none" stroke="#666666" stroke-width="2" stroke-linecap="round" stroke-linejoin="round" stroke-miterlimit="10" x1="73.829" y1="35.016" x2="86.22" y2="23.676"/>
		</g>
		<g>
			
				<line fill="none" stroke="#666666" stroke-width="2" stroke-linecap="round" stroke-linejoin="round" stroke-miterlimit="10" x1="56.22" y1="52.973" x2="70.075" y2="62.516"/>
			
				<line fill="none" stroke="#666666" stroke-width="2" stroke-linecap="round" stroke-linejoin="round" stroke-miterlimit="10" x1="56.837" y1="34.646" x2="73.071" y2="45.801"/>
		</g>
		<path fill="none" stroke="#666666" stroke-width="4" stroke-linecap="round" stroke-linejoin="round" stroke-miterlimit="10" d="
			M105.572,71.723C94.889,81.471,84.186,83.342,76.891,83.18l-9.383-9.584c0.461-7.365,3.223-18.549,13.922-28.318
			c15.578-14.219,36.225-8.824,36.225-8.824S121.539,57.148,105.572,71.723z"/>
		
			<line fill="none" stroke="#666666" stroke-width="2" stroke-linecap="round" stroke-linejoin="round" stroke-miterlimit="10" x1="117.896" y1="36.797" x2="72.21" y2="78.492"/>
		<g>
			
				<line fill="none" stroke="#666666" stroke-width="2" stroke-linecap="round" stroke-linejoin="round" stroke-miterlimit="10" x1="100.046" y1="53.084" x2="115.499" y2="53.836"/>
			
				<line fill="none" stroke="#666666" stroke-width="2" stroke-linecap="round" stroke-linejoin="round" stroke-miterlimit="10" x1="85.435" y1="66.607" x2="107.056" y2="70.363"/>
		</g>
		<g>
			
				<line fill="none" stroke="#666666" stroke-width="2" stroke-linecap="round" stroke-linejoin="round" stroke-miterlimit="10" x1="74.894" y1="53.334" x2="78.481" y2="72.764"/>
			
				<line fill="none" stroke="#666666" stroke-width="2" stroke-linecap="round" stroke-linejoin="round" stroke-miterlimit="10" x1="88.296" y1="40.82" x2="91.882" y2="60.174"/>
		</g>
		<path fill="none" stroke="#666666" stroke-width="4" stroke-linecap="round" stroke-linejoin="round" stroke-miterlimit="10" d="
			M83.167,89.667l-20.786-21.3c-10.629-14.389-30.229-1.322-16.164,14.906c0,0,11.943,11.547,11.615,20.404
			c-0.225,5.924-0.516,23.564-0.516,23.564h57.361"/>
		
			<rect x="57.316" y="127.242" fill="none" stroke="#666666" stroke-width="4" stroke-linecap="round" stroke-linejoin="round" stroke-miterlimit="10" width="57.361" height="11.879"/>
		<path fill="none" stroke="#666666" stroke-width="4" stroke-linecap="round" stroke-linejoin="round" stroke-miterlimit="10" d="
			M67.749,73.938c0.461-7.369,3.223-18.547,13.922-28.32c3.053-2.785,6.289-4.805,9.539-6.271
			C89.616,20.93,74.931,10.879,74.931,10.879S56.515,21.664,55.554,42.727c-0.543,11.922,3.168,20.398,7.283,26.197L67.749,73.938z"
			/>
		
			<line fill="none" stroke="#666666" stroke-width="2" stroke-linecap="round" stroke-linejoin="round" stroke-miterlimit="10" x1="74.931" y1="10.879" x2="72.843" y2="56.654"/>
	</g>
</g>
<g id="圖層_2">
</g>
</svg>
